<svg width="21" height="22" viewBox="0 0 21 22" fill="none" xmlns="http://www.w3.org/2000/svg">
<path d="M9.00003 0L11.39 3.42C10.65 3.15 9.84003 3 9.00003 3C8.16003 3 7.35003 3.15 6.61003 3.42L9.00003 0ZM0.340027 5L4.50003 4.65C3.87938 5.17424 3.35193 5.79974 2.94003 6.5C2.50003 7.24 2.25003 8 2.11003 8.79L0.340027 5ZM0.360027 15L2.12003 11.23C2.41391 12.8425 3.25441 14.3046 4.50003 15.37L0.360027 15ZM17.65 5L15.88 8.79C15.5971 7.17067 14.7548 5.702 13.5 4.64L17.65 5ZM21 12H19C19 14.05 18.22 16.1 16.66 17.66C15.9178 18.4045 15.0356 18.9945 14.0641 19.3962C13.0926 19.7978 12.0512 20.003 11 20V22C13.56 22 16.12 21 18.07 19.07C20.02 17.14 21 14.56 21 12ZM17 12H15C15 13 14.61 14.05 13.83 14.83C13.05 15.61 12 16 11 16V18C11.7883 18.0013 12.5691 17.847 13.2977 17.546C14.0262 17.2449 14.6882 16.803 15.2456 16.2456C15.803 15.6882 16.2449 15.0262 16.546 14.2977C16.847 13.5691 17.0013 12.7883 17 12ZM9.00003 7C10.65 7 12 8.35 12 10C12 11.65 10.65 13 9.00003 13C7.35003 13 6.00003 11.65 6.00003 10C6.00003 8.35 7.35003 7 9.00003 7ZM9.00003 5C6.24003 5 4.00003 7.24 4.00003 10C4.00003 12.76 6.24003 15 9.00003 15C11.76 15 14 12.76 14 10C14 7.24 11.76 5 9.00003 5Z" fill="#38B6FF"/>
</svg>
