<svg width="24" height="24" viewBox="0 0 24 24" fill="none" xmlns="http://www.w3.org/2000/svg">
<path d="M6.58003 2C6.51003 4.616 4.53003 6.596 1.98403 6.596V8.01C5.45003 8.081 8.13603 5.394 7.99403 2H6.58003ZM1.98403 3.626V5.041C3.75203 4.97 5.02403 3.697 5.02403 2H3.61203C3.54824 2.40851 3.35626 2.78617 3.06381 3.07844C2.77136 3.37071 2.39358 3.56246 1.98503 3.626M22.017 6.596C19.471 6.596 17.491 4.616 17.421 2H16.006C15.865 5.394 18.552 8.081 22.016 8.01L22.017 6.596ZM22.017 5.041V3.626C21.6083 3.56266 21.2303 3.37099 20.9376 3.07871C20.645 2.78642 20.4529 2.40865 20.389 2H18.975C18.975 3.697 20.248 4.97 22.015 5.04M19 20V12H22L12 3L2.00003 12H5.00003V20H19ZM12 5.7L17 10.2V18H7.00003V10.2L12 5.7Z" fill="#38B6FF"/>
</svg>
