<svg width="25" height="24" viewBox="0 0 25 24" fill="none" xmlns="http://www.w3.org/2000/svg">
<path d="M21.6666 11C21.6666 16.55 17.8266 21.74 12.6666 23C7.50663 21.74 3.66663 16.55 3.66663 11V5L12.6666 1L21.6666 5V11ZM12.6666 21C16.4166 20 19.6666 15.54 19.6666 11.22V6.3L12.6666 3.18L5.66663 6.3V11.22C5.66663 15.54 8.91663 20 12.6666 21ZM12.6666 8.89C14.2666 8.89 15.5566 10.18 15.5566 11.78C15.5566 13.38 14.2666 14.67 12.6666 14.67C11.0666 14.67 9.77663 13.37 9.77663 11.78C9.77663 10.19 11.0766 8.89 12.6666 8.89ZM12.6666 6L14.0466 8C13.6266 7.82 13.1666 7.73 12.6666 7.73C11.9166 7.73 11.7166 7.82 11.2866 8L12.6666 6ZM7.66663 8.89L10.0666 8.69C9.72663 9 9.40663 9.34 9.16663 9.76C8.91663 10.18 8.76663 10.62 8.66663 11.08L7.66663 8.89ZM7.66663 14.67L8.69663 12.5C8.77663 12.93 8.93663 13.38 9.16663 13.8C9.41663 14.23 9.72663 14.59 10.0666 14.88L7.66663 14.67ZM17.6666 8.89L16.6666 11.08C16.5666 10.62 16.4066 10.18 16.1666 9.76C15.9266 9.34 15.6166 9 15.2666 8.68L17.6666 8.89ZM17.6666 14.67L15.2666 14.87C15.6066 14.58 15.9166 14.22 16.1666 13.8C16.4066 13.38 16.5566 12.93 16.6366 12.5L17.6666 14.67ZM12.6666 17.55L11.2766 15.57C11.7066 15.72 12.1666 15.82 12.6666 15.82C13.1666 15.82 13.6166 15.72 14.0366 15.57L12.6666 17.55Z" fill="#38B6FF"/>
</svg>
