<svg width="25" height="24" viewBox="0 0 25 24" fill="none" xmlns="http://www.w3.org/2000/svg">
<path d="M9.62334 21H12.4533L21.3333 12.12V9.29M19.3333 21C19.8833 21 20.3833 20.78 20.7433 20.41C21.1133 20.05 21.3333 19.55 21.3333 19V17L17.3333 21M5.33334 3C4.80291 3 4.2942 3.21071 3.91913 3.58579C3.54406 3.96086 3.33334 4.46957 3.33334 5V7L7.33334 3M12.2133 3L3.33334 11.88V14.71L15.0433 3M19.8333 3.08L3.41334 19.5C3.50334 19.85 3.68334 20.16 3.92334 20.41C4.17334 20.65 4.48334 20.83 4.83334 20.92L21.2633 4.5C21.0733 3.8 20.5333 3.26 19.8333 3.08Z" fill="#38B6FF"/>
</svg>
