<?xml version="1.0" encoding="utf-8"?>
<!-- Generator: Adobe Illustrator 19.2.1, SVG Export Plug-In . SVG Version: 6.00 Build 0)  -->
<svg version="1.1" id="layer" xmlns="http://www.w3.org/2000/svg" xmlns:xlink="http://www.w3.org/1999/xlink" x="0px" y="0px"
	 viewBox="0 0 652 652" style="enable-background:new 0 0 652 652;" xml:space="preserve">
<style type="text/css">
	.st0{fill:#004A8F;}
	.st1{fill:#EF4061;}
</style>
<path class="st0" d="M172.2,421.2h64.9l-68-197.9H89.8L21,421.2h65l11.5-41.1h63.3L172.2,421.2z M109.5,337.3l9.7-33.3l9.3-37h1.2
	l9.3,37l9.5,33.3H109.5z"/>
<path class="st0" d="M617.5,226.6c0,0-18.5-9.1-56.5-9.1c-38,0-115.6,17.2-115.6,101.8c0,81.7,70.1,104.3,121.3,104.3
	c25.3,0,44-6.2,54.2-10.5l-9.5-39.9c-7.9,3.7-21.8,7-40,7c-21.6,0-63.5-6.9-63.5-61c0-54.1,42.7-58.5,57.9-58.5
	c15.2,0,30.5,2.9,40.8,8.6L617.5,226.6z"/>
<path class="st0" d="M412.2,228.2c0,0-23-10.7-63.6-10.7c-37.3,0-114.1,15.8-114.1,102.4c0,84.2,70.8,103.3,115.3,103.3
	c32.2,0,55.4-4.5,69.6-9.8V296.8l-51.7,43.5v39.9c-5,1.2-11.6,1.8-20.8,1.8c-13.8,0-52.6-6.9-52.6-62c0-52.8,38.5-58.9,58.6-58.9
	c17,0,36.6,3.8,48.5,9.9L412.2,228.2z"/>
<polygon class="st1" points="328.7,340.3 367.7,340.3 419.4,296.9 328.7,296.9 "/>
</svg>
