<?xml version="1.0" encoding="utf-8"?>
<!-- Generator: Adobe Illustrator 25.4.1, SVG Export Plug-In . SVG Version: 6.00 Build 0)  -->
<svg version="1.0" id="katman_1" xmlns="http://www.w3.org/2000/svg" xmlns:xlink="http://www.w3.org/1999/xlink" x="0px" y="0px"
	 viewBox="0 0 1500 1200" style="enable-background:new 0 0 1500 1200;" xml:space="preserve">
<style type="text/css">
	.st0{fill:#3065AF;}
</style>
<g>
	<path class="st0" d="M707.9,559.8v-20.5c0-0.7-0.5-1.2-1.2-1.2h-30c-0.7,0-1.2,0.5-1.2,1.2v11.2c0,0.7,0.5,1.2,1.2,1.2h15v7.8
		c0,1.9-0.2,3.6-1.2,4.8c-2.3,2.7-8.9,4.8-16.6,4.8c-18.3,0-23.4-10.9-23.4-29.9c0-18.9,3.6-29,23.7-29c9.9,0,14.7,3.9,15.5,11.9
		c0.1,0.8,0.6,1.2,1.3,1.2h14.2c0.7,0,1.2-0.5,1.2-1.2c-0.3-16.8-9.6-25-31.6-25c-30.9,0-41.4,14.9-41.4,43.7
		c0,28.5,13.8,41.2,36.9,41.2C690.4,582,707.9,577,707.9,559.8 M818.8,580.7h25.5c0.7,0,1.2-0.5,1.2-1.2v-10.6
		c0-0.7-0.5-1.2-1.2-1.2h-5.6l5-12.1h29l5.1,12.1h-5.3c-0.7,0-1.2,0.5-1.2,1.2v10.6c0,0.7,0.5,1.2,1.2,1.2h26.7
		c0.7,0,1.2-0.5,1.2-1.2v-10.6c0-0.7-0.5-1.2-1.2-1.2h-3.5l-27.5-68.6c-0.2-0.7-0.7-0.9-1.3-0.9h-15.5c-0.6,0-1,0.2-1.3,0.9
		l-28,68.6h-3.5c-0.7,0-1.2,0.5-1.2,1.2v10.6C817.6,580.2,818.1,580.7,818.8,580.7 M869,543.2h-21c6.1-15.2,8.8-22.2,10.6-27.9
		C862,525.3,863.5,529.3,869,543.2 M918.5,580.7H945c0.7,0,1.2-0.5,1.2-1.2v-10.6c0-0.7-0.5-1.2-1.2-1.2h-5.1v-20.4h9.1
		c3.4,0,5.5,0.6,7.2,3c3.3,4.7,7.7,16.9,12.5,23.6c3.2,4.4,7.2,6.8,16.8,6.8h6.7c0.8,0,1.2-0.6,1.2-1.3v-10.6c0-0.8-0.5-1.1-1.3-1.1
		h-2.8c-4.4,0-6.3-1.1-8.2-4.3c-3.2-5.4-5.7-11.4-8.3-14.9c-1.2-1.6-3.2-3.6-5.5-3.9c13.1-3.7,17.3-12.5,17.3-21.9
		c0-9.9-2.5-17.8-12.1-21.5c-4.8-1.8-13-2.9-24.9-2.9h-29c-0.7,0-1.2,0.5-1.2,1.2v10.6c0,0.7,0.5,1.2,1.2,1.2h4.7v56.5h-4.7
		c-0.7,0-1.2,0.5-1.2,1.2v10.6C917.4,580.2,917.8,580.7,918.5,580.7 M949.1,534.8h-9.2v-23.5h8.9c5.8,0,10.3,0.5,12.7,1.3
		c4.2,1.3,6,4.9,6,10.7c0,5.6-2.6,8.6-6.5,10C957.5,534.5,954.3,534.8,949.1,534.8 M1013.8,580.7h28.5c6.8,0,19.5-0.6,26.1-2.8
		c17.7-6,22.3-19,22.3-39.2c0-21.3-6.7-34.1-22.2-38.1c-6.2-1.6-14.2-2.2-24.1-2.2h-30.6c-0.7,0-1.2,0.5-1.2,1.2v10.6
		c0,0.7,0.5,1.2,1.2,1.2h4.7v56.5h-4.7c-0.7,0-1.2,0.5-1.2,1.2v10.6C1012.7,580.2,1013.1,580.7,1013.8,580.7 M1045.4,567.8h-10.3
		v-56.5h10c20.5,0,28,4.8,28,27.4C1073.2,562.9,1065.5,567.8,1045.4,567.8 M1110.9,580.7h25.9c0.7,0,1.2-0.5,1.2-1.2v-10.6
		c0-0.7-0.5-1.2-1.2-1.2h-4.6v-56.5h4.6c0.7,0,1.2-0.5,1.2-1.2v-10.6c0-0.7-0.5-1.2-1.2-1.2h-25.9c-0.7,0-1.2,0.5-1.2,1.2v10.6
		c0,0.7,0.5,1.2,1.2,1.2h4.7v56.5h-4.7c-0.7,0-1.2,0.5-1.2,1.2v10.6C1109.7,580.2,1110.2,580.7,1110.9,580.7 M1155.6,580.7h25.5
		c0.7,0,1.2-0.5,1.2-1.2v-10.6c0-0.7-0.5-1.2-1.2-1.2h-5.6l5-12.1h29.1l5.1,12.1h-5.3c-0.7,0-1.2,0.5-1.2,1.2v10.6
		c0,0.7,0.5,1.2,1.2,1.2h26.7c0.7,0,1.2-0.5,1.2-1.2v-10.6c0-0.7-0.5-1.2-1.2-1.2h-3.5l-27.5-68.6c-0.2-0.7-0.7-0.9-1.3-0.9h-15.5
		c-0.6,0-1,0.2-1.3,0.9l-28,68.6h-3.5c-0.7,0-1.2,0.5-1.2,1.2v10.6C1154.4,580.2,1154.9,580.7,1155.6,580.7 M1205.7,543.2h-21
		c6.1-15.2,8.8-22.2,10.6-27.9C1198.7,525.3,1200.2,529.3,1205.7,543.2 M1255.4,580.7h24.6c0.7,0,1.2-0.5,1.2-1.2v-10.6
		c0-0.7-0.5-1.2-1.2-1.2h-4.9c0-25.9-0.1-37-0.2-42.9l38.4,55.3c0.3,0.6,0.8,0.7,1.4,0.7h13c0.7,0,1.2-0.5,1.2-1.2v-68.4h4.8
		c0.7,0,1.2-0.5,1.2-1.2v-10.6c0-0.7-0.5-1.2-1.2-1.2H1309c-0.7,0-1.2,0.5-1.2,1.2v10.6c0,0.7,0.5,1.2,1.2,1.2h4.8
		c0,22.3,0,33.6,0.1,41.4l-37.4-53.7c-0.4-0.6-0.8-0.7-1.4-0.7h-19.7c-0.7,0-1.2,0.5-1.2,1.2v10.6c0,0.7,0.5,1.2,1.2,1.2h4.9v56.5
		h-4.8c-0.7,0-1.2,0.5-1.2,1.2v10.6C1254.2,580.2,1254.7,580.7,1255.4,580.7 M809.2,701.9h25.6c0.7,0,1.2-0.5,1.2-1.2v-10.6
		c0-0.7-0.5-1.2-1.2-1.2h-5.6l5-12.1h29l5.1,12.1h-5.3c-0.7,0-1.2,0.5-1.2,1.2v10.6c0,0.7,0.5,1.2,1.2,1.2h26.7
		c0.7,0,1.2-0.5,1.2-1.2v-10.6c0-0.7-0.5-1.2-1.2-1.2h-3.5l-27.5-68.6c-0.2-0.7-0.7-0.9-1.3-0.9H842c-0.6,0-1,0.2-1.3,0.9l-28,68.6
		h-3.5c-0.7,0-1.2,0.5-1.2,1.2v10.6C808.1,701.4,808.5,701.9,809.2,701.9 M859.4,664.4h-21c6.1-15.2,8.8-22.2,10.6-27.9
		C852.4,646.5,853.9,650.5,859.4,664.4 M728.7,701.9h60.8c0.7,0,1.2-0.4,1.2-1.2l0.2-20.3c0-0.7-0.5-1.2-1.2-1.2l-10.6-0.1
		c-0.7,0-1.2,0.4-1.2,1.2l-0.1,8.6h-27.8v-56.5h6.3c0.7,0,1.2-0.5,1.2-1.2v-10.6c0-0.7-0.5-1.2-1.2-1.2h-27.6
		c-0.7,0-1.2,0.5-1.2,1.2v10.6c0,0.7,0.5,1.2,1.2,1.2h4.7V689h-4.7c-0.7,0-1.2,0.5-1.2,1.2v10.6C727.6,701.4,728,701.9,728.7,701.9
		 M920,676.8h-13.6c-0.7,0-1.2,0.5-1.2,1.2c0.1,5.1,0.7,9.8,2.5,13.6c3.5,7.7,13.2,11.6,30.8,11.6c27.7,0,36.6-8.3,36.6-24.3
		c0-15.5-5.8-21-21.6-23.9l-16.9-3.2c-9.6-1.8-11.7-5.3-11.7-10.3c0-6.3,4.3-10,17-10c9.3,0,12.3,1.7,13.8,3.7
		c1.1,1.4,1.6,4,1.8,5.9c0.1,0.8,0.6,1.2,1.3,1.2h13.4c0.7,0,1.2-0.5,1.2-1.2c-0.1-3.8-0.5-8.6-1.9-12.1
		c-3.2-8.1-12.8-10.8-29.8-10.8c-25.1,0-33.8,9.3-33.8,24.4c0,15.3,7.7,21.5,20.7,23.8l16.2,2.9c11.2,2,13,4.4,13,10.4
		c0,6.5-3.4,10.1-18.2,10.1c-9.7,0-14.6-2.3-16.2-4.8c-1.2-1.8-1.9-4.2-2.1-7.1C921.2,677.2,920.7,676.8,920,676.8 M802,511.3h4.1
		c0.7,0,1.2-0.5,1.2-1.2v-10.6c0-0.7-0.5-1.2-1.2-1.2h-24.6c-0.7,0-1.2,0.5-1.2,1.2v10.6c0,0.7,0.5,1.2,1.2,1.2h4.7v32.1
		c0,7.2-0.1,13.8-2.9,18.7c-3,5.6-10.2,6.5-16.1,6.5c-7.5,0-12.8-1.9-15.6-6.8c-2.2-4.1-2.6-10.7-2.6-18.6v-32h4.6
		c0.7,0,1.2-0.5,1.2-1.2v-10.6c0-0.7-0.5-1.2-1.2-1.2h-25.6c-0.7,0-1.2,0.5-1.2,1.2v10.6c0,0.7,0.5,1.2,1.2,1.2h4.2v25.3
		c0,11.3,0.4,22.9,2.9,29.6c4.9,12.8,17.5,15.8,31.3,15.8c16,0,27.1-5,31.8-14.6c3.4-6.9,3.9-15.6,3.9-31.1V511.3z M1007.4,676.8
		h-13.7c-0.7,0-1.2,0.5-1.2,1.2c0.1,5.1,0.7,9.8,2.5,13.6c3.5,7.7,13.2,11.6,30.8,11.6c27.7,0,36.6-8.3,36.6-24.3
		c0-15.5-5.8-21-21.6-23.9l-16.9-3.2c-9.6-1.8-11.7-5.3-11.7-10.3c0-6.3,4.3-10,17-10c9.3,0,12.3,1.7,13.8,3.7c1,1.4,1.6,4,1.7,5.9
		c0.1,0.8,0.6,1.2,1.3,1.2h13.4c0.7,0,1.2-0.5,1.2-1.2c-0.1-3.8-0.5-8.6-1.9-12.1c-3.2-8.1-12.8-10.8-29.7-10.8
		c-25.1,0-33.8,9.3-33.8,24.4c0,15.3,7.7,21.5,20.7,23.8l16.2,2.9c11.2,2,13,4.4,13,10.4c0,6.5-3.4,10.1-18.2,10.1
		c-9.7,0-14.6-2.3-16.2-4.8c-1.2-1.8-1.9-4.2-2.1-7.1C1008.6,677.2,1008.1,676.8,1007.4,676.8 M707.9,681v-20.5
		c0-0.7-0.5-1.2-1.2-1.2h-30c-0.7,0-1.2,0.5-1.2,1.2v11.2c0,0.7,0.5,1.2,1.2,1.2h15v7.8c0,1.9-0.2,3.6-1.2,4.8
		c-2.3,2.7-8.9,4.8-16.6,4.8c-18.3,0-23.4-10.8-23.4-29.9c0-18.9,3.6-29,23.7-29c9.9,0,14.7,3.9,15.5,11.9c0.1,0.8,0.6,1.2,1.3,1.2
		h14.2c0.7,0,1.2-0.5,1.2-1.2c-0.3-16.8-9.6-25-31.6-25c-30.9,0-41.4,14.9-41.4,43.7c0,28.5,13.8,41.2,36.9,41.2
		C690.4,703.2,707.9,698.2,707.9,681"/>
	<path class="st0" d="M1357.7,508.6c0.5,0,1,0,1.4-0.1c0.5,0,0.9-0.1,1.2-0.3c0.4-0.2,0.6-0.4,0.8-0.7c0.2-0.3,0.3-0.8,0.3-1.3
		c0-0.5-0.1-0.9-0.3-1.2c-0.2-0.3-0.4-0.5-0.7-0.7c-0.3-0.2-0.6-0.3-1-0.3c-0.4-0.1-0.8-0.1-1.1-0.1h-3v4.6H1357.7z M1358.7,502.2
		c1.7,0,3,0.3,3.8,1c0.8,0.7,1.2,1.7,1.2,3.1c0,1.3-0.4,2.3-1.1,2.9c-0.7,0.6-1.6,1-2.7,1.1l4.1,6.4h-2.4l-3.9-6.2h-2.4v6.2h-2.3
		v-14.4H1358.7z M1348.5,513.6c0.5,1.3,1.2,2.4,2.1,3.4c0.9,0.9,2,1.7,3.2,2.2c1.2,0.5,2.6,0.8,4,0.8c1.4,0,2.8-0.3,4-0.8
		c1.2-0.5,2.3-1.3,3.2-2.2c0.9-1,1.6-2.1,2.2-3.4c0.5-1.3,0.8-2.7,0.8-4.2c0-1.5-0.3-2.9-0.8-4.1c-0.5-1.3-1.2-2.4-2.2-3.3
		c-0.9-0.9-2-1.7-3.2-2.2c-1.2-0.5-2.6-0.8-4-0.8c-1.5,0-2.8,0.3-4,0.8c-1.2,0.5-2.3,1.3-3.2,2.2c-0.9,0.9-1.6,2-2.1,3.3
		c-0.5,1.3-0.8,2.7-0.8,4.1C1347.8,510.9,1348,512.3,1348.5,513.6 M1346.5,504.5c0.7-1.5,1.6-2.8,2.7-3.9c1.1-1.1,2.5-2,4-2.6
		c1.5-0.6,3.1-0.9,4.8-0.9s3.3,0.3,4.8,0.9c1.5,0.6,2.8,1.5,3.9,2.6c1.1,1.1,2,2.4,2.7,3.9c0.7,1.5,1,3.1,1,4.9c0,1.8-0.3,3.4-1,4.9
		c-0.7,1.5-1.6,2.8-2.7,3.9c-1.1,1.1-2.4,2-3.9,2.6c-1.5,0.6-3.1,0.9-4.8,0.9s-3.3-0.3-4.8-0.9c-1.5-0.6-2.8-1.5-4-2.6
		c-1.1-1.1-2-2.4-2.7-3.9c-0.7-1.5-1-3.2-1-4.9C1345.5,507.6,1345.9,506,1346.5,504.5"/>
	<path class="st0" d="M379.9,639c-1.1-4.1-5.7-8-8.1-12.2c-0.6-1-1-2.1-1.6-3.2l0-0.1c-0.7,0.2-2.6,0.4-3.3,0.4c-1,0-2-0.1-3-0.2
		c-1.9-0.1-3.8-0.6-5.6-1.1c-3.5-1-7.1-2.6-10.4-4.1c-1.6-0.8-3.3-1.6-5.2-1.9c0.1,1.3,0,2.6,0,3.9c0,1.8,0.2,3.4-0.4,5.1
		c-0.5,1.5-1.2,2.9-1.8,4.4c-0.6,1.6-0.2,3.2-0.1,4.9c0.1,0.9,0.2,1.8,0.3,2.7c0.1,0.5,0.4,1.8,0.3,2.3c0.6,0.1,1.1,0.2,1.7,0.3
		c1.1,0.2,2,0.4,3.1,0.6c0.9,0.2,1.9,0.6,2.7,0.9c0.8,0.3,0.7,1.6,1.2,2.4c0.4,0.8,0.7,1.2,1.3,1.9c0.8,0.9,0.9,1.2,2,1.7
		c1.9,1,4,3.6,3.7,3.7c-2.6,0.5-4,0.6-6.1,0.6c-0.5,0-1.4,0-1.9-0.2c-0.1-0.1-0.1-0.1-0.2-0.2c-0.8-0.9-1.8-2.4-0.8-3.5
		c-0.3-0.4-1-1.3-1.5-1.5c-0.5-0.2-3.2-1.3-4.1-1.3c0,0,4.4,4.7,5.9,6.4c1.4,1.6,4.3,4.3,5.5,5.6c1.7,1.7,7.2,6.4,7.5,6.6
		c0.6,0.4,1.1,1,1.5,1.5c0.5,0.7,2.2,3.5,1.7,3.9c-2.8,0.6-5.8,0.4-8.7,0.2c-0.6,0-1.4-0.1-2.1-0.4l-0.1-0.2
		c-0.1-0.6-0.2-1.3-0.1-2.1c0-0.9,0.2-1.9,0.3-2.5c0.3-1-0.9-2-1.9-2c-1,0-1.8,0.2-2.3-0.3c-0.5-0.4-3.4-4.8-3.8-5.5
		c-1.1-1.6-2.2-2.9-3.5-4.4c-1.2-1.4-2.5-3.1-3.5-4.6c-0.8-1.1-2.7-3.7-3.2-3.8c-2.5-0.5-5.6-1.1-6.4-1.3c-2.3-0.4-4.4-0.9-6.7-1.3
		c-0.6-0.1-2.9-0.5-3.9-1.8c-0.6-0.8-0.6-1.8-0.4-2.5c0-0.4,0.4-1.2,0.6-1.7c0.2-0.6,0.4-1.2,0.6-1.8c0.4-1.1,0.6-2.3,0.7-3.5
		c0.1-1.2,0-2.5,0-3.8c0-1.2,0.4-2.6,0.1-3.7c-0.3-0.7-1-1.3-1.8-1.8c-5.7-3.4-10.5-6.3-13.2-12.3c-2.7-6.1-3-10.2-2.6-15.5
		c0-0.3-0.3-0.6-1-0.2c-1.1,0.9-1,1.7-3,4.8c-4.9,7.7-7.2,11.6-16.2,11.7c-7.5,0.1-12.7-7.4-17.4-10.6c-4.6-3.3-11.7-4.5-17.7-3.8
		c4.2-3,11.7-6,16.6-5.3c3.9,0.6,10.2,5.8,16.4,6.5c10.6,1.1,13.1-9.6,24.3-8.8c4.4,0.3,9.9-9.4,25.6-8.1c8.7,0.8,8.3,1.1,14.2,3.5
		c2.2,0.2-0.2-4.8,2.8-3.6c0.6,0.2-0.8-1.1-0.8-2.1c-0.1-2.8,1.7-5.5,4.9-7.1l-61,11.5l0.1-3.7l62.2-12.1c-1.7-1.1-3.1-2.4-4.5-3.4
		c-1-0.8-2.4-2.3-1.8-3.8c0.8-1.8,1.9-2.1,4.3-2.9c0.8-0.3,2.2-0.9,3.8-1.5c3-1.3,4.8-4,9.3-3.7l0.9,0c5.2,0.3,9.7,3.1,10-0.2
		c0.2-2.6,1.6-5,3.6-6.2c1.7-1,4.4-1.1,6,0.1c1.7,1.2,3.4,3,3.2,5.2c-0.1,0.9-0.4,1.7-0.8,2.5c-0.3,0.5-0.5,1-0.7,1.5
		c-0.1,0.3-0.3,0.5-0.4,0.8c-0.1,0.2-0.2,0.5-0.3,0.7c-0.1,0.1-0.2,0.2-0.4,0.3c-0.3,0.1-0.5-0.2-0.8-0.1c-0.2,0-0.4,0.3-0.6,0.5
		c-0.3,0.4-0.6,0.8-0.9,1.2c-0.3,0.4-0.7,0.7-1.2,0.6c-0.6,0-0.9-0.3-1.3-0.7c-0.4-0.4-1-0.5-1.5,0c-0.5,0.4-0.7,1.1-0.4,1.7
		c0.4,0.7,1,1.5,1.2,2.4l100.1-19c1.2-0.3-0.7-2.1-1.3-2.7c-6.4-6.1-19.3-15-33.9-20c-34.3-11.7-69.4-11.8-91.7-10.1
		c-7.9,0.6-15.6,1.6-23.1,3c-16.8,3.1-33,8.4-49.4,17.2c-28.9,15.2-48.7,40.1-48.7,65c0,32.5,21.7,61.9,55.7,77.2
		c29.5,13.3,52.9,18.6,95.7,18.6c32.7,0,49.9-2.3,70.6-6.7c13.2-2.8,18.3-11.6,18.3-25.9v-33.3c0-9.9-0.8-12.7-16.5-12.7l-4.5,0.3
		c-3.8,0-4.4-1.1-4.4-2.5v-4.3c0-1.1,0.6-1.9,4.4-1.9c5.7,0,1.2,0.5,57.8,0.5c57.9,0,61.4-0.8,66.4-0.8c5,0,5.7,0.8,5.7,2.2v4.3
		c0,1.7-0.6,2.2-4.4,2.2h-5c-11.3,0-12,1.9-12,9.9V671c0,3.9-0.2,28.4-0.2,28.4s-13.2-4.7-29.3-6.3c-23.9-2.3-29.3-2.3-61,1.6
		c-14.5,1.8-15.8,2.3-24.6,3.3c-25.8,3.2-49.2,4.4-73.7,4.4c-65.4,0-139-9.6-182.4-32c-38.4-19-57.9-42.5-57.9-75.8
		c0-25.1,27-51.8,72.9-69.2c43.1-16.5,89-26.8,156.9-26.6c13-0.3,54.5,0,102.5,11.5c23.9,5.7,54.8,18.3,64.8,22.4
		c0,0,0.5,0.2,0.9,0.2c0,0,1.4-0.3,1.9-0.4c4.4-1.2,1.6-2.5,9.1-2.6c1.4,0,8.3,0.7,8.3,0.9c0,0.2-6,3.4-7.4,3.9
		c-6.9,2.8-4.9,0.5-9.4,1.1l-152.3,29.1c-0.3,0.6-0.5,1.1-0.8,1.7c-0.2,0.5-0.5,1.2-0.4,1.7c0.2,1,1.4,1.5,2.3,1.9
		c1.3,0.6,2.7,0.9,4.2,1.2c1.7-1.4,4-1.3,4-1.3c5.2,0,6.2-0.4,6.1-0.5c-0.4-0.3-1.1-1.9-0.8-3c2.2,0.5,5,1.2,7.6-0.7
		c-0.1-0.1-1.5-1.2-1-3c3.8,1.5,9.8,1.5,14.3,0c2.2-0.7,4.5-0.1,6.7,0.3c0.6,0.1,1.3,0.3,1.9,0.1c1.1-0.4,1.9-1.1,2.7-1.9
		c0.5-0.5,0.9-1,1.3-1.5c0.2-0.3,0.4-0.5,0.6-0.8c0.1-0.2,0.3-0.5,0.4-0.4c0.1,0.1,0.2,0.6,0.2,0.7c0.3,1.2,0.4,2.5,0.2,3.7
		c0,0.2-0.2,0.9-0.3,1.6c0,1.6,0.1,3,0.7,4l2.1,3.6c2.3,4.9,4.2,7.8,8.1,12.6c0.9,1.5,0.6,4.5-0.5,7c-0.4,0.8-2.7,5-4.9,3.2
		c-1.4-1.4-3.2,0.6-3.8-0.9c-0.9-2.3-3.3-4.4-5.5-5c0,0-6.5-1.7-8.5-4.5c-2.5,1.1-10.4,7.1-13.5,12c-2.9,4.7-3.9,9.6-4.3,10.9
		c-1.2,3.9-3.2,7.4-4.7,9.3c-1.5,1.9-2.3,2.1-2.2,2.7c0.1,0.3,2,1,3,1.6c2.1,1,4.2,1.9,6.3,2.6c1.2,0.4,1.7,0.6,2.9,0.8
		c1.2,0.2,2.7,0.5,2.9,0.6c0.2,0.1,0.6,0.3,0.6,0.7c0.1,0.7,0,2.8,0.2,4.4c0.1,1.3,0.6,3.3,0,4.6c-0.3,0.7-2.4,3.7-2.8,4.5
		c-0.5,1-2.1,3.2-2.8,5.2c-1,2.8-3.1,7.1-4,8c-0.7,0.7-1.5,0.7-1.9,1.7c-0.7,1.5-0.9,2.9-2.2,4.1c-0.6,0.6-1.3,1-2,1.6
		c-1.2-0.6-1.2-3.4-1.4-4.5c-0.2-1.6,0.1-2.9,0.5-4.5c1.1-1.1,2.5-1.5,3.9-1.7c0.5-0.2,1-0.1,1.6-0.9c0.7-0.8,0.2-2.8,0.6-3.8
		c0.6-1.4,2.6-4.4,3.1-5.5c1.1-2.4,2.1-5.6,1.2-8.4l-0.1-0.1c-0.6-0.5-1.7-0.8-2.4-1.1c-0.9-0.3-1.8-0.4-2.7-0.4
		c-1.9-0.1-3.8,0-5.6-0.3c-0.9-0.1-5.4-0.3-6.6-0.5c0.3,0.5,0.6,1.7,0.8,2.4c0.6,1.8,1,3.7,1.6,5.4c0.3,0.9,1,2.1,1.2,2.4
		c0.1,0.4,1.4,4.2-2.4,5.9c-3.5,1.5-6.8,0.3-12.3,2.1c-1.1,0.4-2.4,0.8-3.5,1.2c-1.1,0.4-2.2,0.8-3.2,0.2c-0.5-0.3-1-0.9-1.5-1.3
		c-0.5-0.5-0.7-0.6-1.3-0.7l-0.2,0c-2.5,0.3-5.1-1.3-6.6-3.2l-0.1-0.1c0.5-0.7,1.6-1.5,2.4-1.8c1.2-0.5,3.1-1,4.4-1.1
		c0.9,0,1.1,0.6,1.4,1.3c0.3,0.8,1,1.6,1.7,2c0.2,0.1,0.3,0.1,0.6,0.1c0.8-0.3,1.5-0.6,2.2-0.7c0.8-0.1,2.1-0.2,2.9,0.1l0.1,0
		c0.8-0.3,3.2-0.5,3.9-0.7c1.6-0.4,2.1-0.5,2.7-0.7C380,640.6,380.4,640.6,379.9,639 M327.1,631.4c-0.4,1.1-1,3.2-1,4.4l0.3,0.2
		c0.6,0.3,3.2,1,3.8,1.1c0.6,0.1,2,0.8,2.8,0.7c0.2-0.5-1.7-5.2-1.8-5.8c-0.3-1-1.6-6.6-2.2-7.5C328.3,625,327.6,630,327.1,631.4"/>
</g>
</svg>
