<?xml version="1.0" encoding="UTF-8"?>
<svg id="Capa_2" data-name="Capa 2" xmlns="http://www.w3.org/2000/svg" viewBox="0 0 957.18 120.32">
  <g id="Capa_1-2" data-name="Capa 1">
    <polygon points="112.28 1.94 72.88 1.94 72.88 56.29 70.31 51.46 32.84 1.94 0 1.94 0 114.84 39.4 114.84 39.4 60.33 41.96 65.33 79.28 114.84 112.28 114.84 112.28 1.94" style="fill: #fff; stroke-width: 0px;"/>
    <path d="M184.03,83.23c-14.74,0-24.35-9.36-24.35-24.84s9.61-25.16,24.35-25.16,24.35,9.68,24.35,25.16-9.93,24.84-24.35,24.84ZM184.03,0C147.19,0,119.81,24.03,119.81,58.39s27.39,58.39,64.23,58.39,64.07-24.03,64.07-58.39S220.71,0,184.03,0Z" style="fill: #fff; stroke-width: 0px;"/>
    <path d="M312.33,34.19c7.69,0,12.17,3.07,12.17,9.52s-3.04,11.45-12.97,11.45h-16.5v-20.97h17.3ZM327.86,114.84h42.45l-24.67-35.16c13.13-9.03,18.58-24.68,18.58-37.26,0-17.74-12.33-40.49-43.73-40.49h-64.87v112.91h39.4v-28.23h14.58l18.26,28.23Z" style="fill: #fff; stroke-width: 0px;"/>
    <path d="M484.67,46.62h-52.69v28.07h19.38v7.42c-1.92,1.13-6.25,3.71-15.54,3.71-14.58,0-25.79-6.29-25.79-25.81,0-17.42,8.97-26.77,25.31-26.77,9.45,0,19.54,3.06,29.15,6.61l16.34-25.32c-11.21-8.07-26.59-14.52-45.97-14.52-37.32,0-64.71,24.03-64.71,59.36s25.95,57.42,63.75,57.42c28.19,0,45.17-12.9,50.77-16.61v-53.55Z" style="fill: #fff; stroke-width: 0px;"/>
    <polygon points="583.5 82.58 533.52 82.58 533.52 1.94 494.12 1.94 494.12 114.84 568.95 114.84 583.5 82.58" style="fill: #fff; stroke-width: 0px;"/>
    <path d="M636.51,71.78l8.01-20.48,2.72-7.9,2.72,7.9,8.01,20.48h-21.46ZM674.63,114.84h40.36L665.18,1.94h-35.88l-49.81,112.91h40.2l5.13-13.07h44.69l5.13,13.07Z" style="fill: #fff; stroke-width: 0px;"/>
    <path d="M757.92,35.65c0-2.58,3.2-3.71,10.73-3.71,8.65,0,19.86,1.45,35.56,7.9l9.61-30.81c-13.29-5.81-27.87-9.03-43.41-9.03-29.47,0-51.25,12.1-51.25,38.39,0,41.94,58.46,32.58,58.46,42.58,0,2.9-6.25,3.55-12.17,3.55-13.46,0-28.51-3.39-41.32-10.32l-9.77,29.52c13.29,7.42,29.63,13.39,50.29,13.39,28.99,0,53.02-11.78,53.02-38.87,0-43.71-59.74-32.42-59.74-42.58Z" style="fill: #fff; stroke-width: 0px;"/>
    <path d="M865.71,35.65c0-2.58,3.2-3.71,10.73-3.71,8.65,0,19.86,1.45,35.56,7.9l9.61-30.81c-13.29-5.81-27.87-9.03-43.41-9.03-29.47,0-51.25,12.1-51.25,38.39,0,41.94,58.46,32.58,58.46,42.58,0,2.9-6.25,3.55-12.17,3.55-13.46,0-28.51-3.39-41.32-10.32l-9.77,29.52c13.29,7.42,29.63,13.39,50.29,13.39,28.99,0,53.02-11.78,53.02-38.87,0-43.71-59.74-32.42-59.74-42.58Z" style="fill: #fff; stroke-width: 0px;"/>
    <text transform="translate(931.13 115.28)" style="fill: #fff; font-family: FONTSPRINGDEMO-ModicaMediumRegular, &apos;FONTSPRINGDEMO ModicaMediumRegular&apos;; font-size: 20.03px;"><tspan x="0" y="0">TM</tspan></text>
  </g>
</svg>
