<?xml version="1.0" encoding="UTF-8"?>
<svg id="Capa_2" data-name="Capa 2" xmlns="http://www.w3.org/2000/svg" viewBox="0 0 2117.99 264.39">
  <g id="Capa_1-2" data-name="Capa 1">
    <polygon points="248.44 4.25 161.26 4.25 161.26 123.69 155.59 113.06 72.65 4.25 0 4.25 0 252.35 87.19 252.35 87.19 132.55 92.86 143.54 175.44 252.35 248.44 252.35 248.44 4.25" style="fill: #3ab5ff; stroke-width: 0px;"/>
    <path d="M407.22,182.88c-32.6,0-53.87-20.56-53.87-54.58s21.27-55.29,53.87-55.29,53.87,21.26,53.87,55.29-21.97,54.58-53.87,54.58ZM407.22,0c-81.51,0-142.12,52.81-142.12,128.3s60.61,128.3,142.12,128.3,141.77-52.81,141.77-128.3S488.38,0,407.22,0Z" style="fill: #3ab5ff; stroke-width: 0px;"/>
    <path d="M691.11,75.14c17.01,0,26.94,6.74,26.94,20.91s-6.73,25.16-28.71,25.16h-36.51v-46.07h38.28ZM725.49,252.35h93.92l-54.58-77.26c29.06-19.85,41.11-54.23,41.11-81.87,0-38.99-27.29-88.96-96.76-88.96h-143.54v248.09h87.19v-62.03h32.25l40.4,62.03Z" style="fill: #3ab5ff; stroke-width: 0px;"/>
    <path d="M1072.46,102.43h-116.6v61.67h42.88v16.3c-4.25,2.48-13.82,8.15-34.38,8.15-32.25,0-57.06-13.82-57.06-56.71,0-38.28,19.85-58.83,56-58.83,20.91,0,43.24,6.73,64.5,14.53l36.15-55.64c-24.81-17.72-58.83-31.9-101.72-31.9-82.58,0-143.18,52.81-143.18,130.43s57.41,126.17,141.06,126.17c62.38,0,99.94-28.35,112.35-36.5v-117.67Z" style="fill: #3ab5ff; stroke-width: 0px;"/>
    <polygon points="1291.15 181.46 1180.56 181.46 1180.56 4.25 1093.37 4.25 1093.37 252.35 1258.95 252.35 1291.15 181.46" style="fill: #3ab5ff; stroke-width: 0px;"/>
    <path d="M1408.44,157.72l17.72-45.01,6.03-17.37,6.03,17.37,17.72,45.01h-47.49ZM1492.8,252.35h89.31L1471.88,4.25h-79.39l-110.22,248.09h88.96l11.34-28.71h98.88l11.34,28.71Z" style="fill: #3ab5ff; stroke-width: 0px;"/>
    <path d="M1677.09,78.33c0-5.67,7.09-8.15,23.74-8.15,19.14,0,43.95,3.19,78.68,17.37l21.26-67.69C1771.37,7.09,1739.11,0,1704.73,0c-65.21,0-113.41,26.58-113.41,84.35,0,92.15,129.36,71.59,129.36,93.57,0,6.38-13.82,7.8-26.94,7.8-29.77,0-63.09-7.44-91.44-22.68l-21.62,64.86c29.42,16.3,65.56,29.42,111.29,29.42,64.15,0,117.31-25.87,117.31-85.41,0-96.05-132.2-71.24-132.2-93.57Z" style="fill: #3ab5ff; stroke-width: 0px;"/>
    <path d="M1915.61,78.33c0-5.67,7.09-8.15,23.74-8.15,19.14,0,43.95,3.19,78.68,17.37l21.26-67.69C2009.89,7.09,1977.63,0,1943.26,0c-65.21,0-113.41,26.58-113.41,84.35,0,92.15,129.36,71.59,129.36,93.57,0,6.38-13.82,7.8-26.94,7.8-29.77,0-63.09-7.44-91.44-22.68l-21.62,64.86c29.42,16.3,65.57,29.42,111.29,29.42,64.15,0,117.31-25.87,117.31-85.41,0-96.05-132.2-71.24-132.2-93.57Z" style="fill: #3ab5ff; stroke-width: 0px;"/>
    <text transform="translate(2060.34 253.32)" style="fill: #3ab5ff; font-family: FONTSPRINGDEMO-ModicaMediumRegular, &apos;FONTSPRINGDEMO ModicaMediumRegular&apos;; font-size: 44.31px;"><tspan x="0" y="0">TM</tspan></text>
  </g>
</svg>