<svg width="22" height="22" viewBox="0 0 22 22" fill="none" xmlns="http://www.w3.org/2000/svg">
<path d="M2.00001 16.25V20H5.75001L16.81 8.93001L13.06 5.18001L2.00001 16.25ZM21.61 17.36L17.36 21.61L12.16 16.41L13.93 14.64L14.93 15.64L17.4 13.16L18.82 14.58L17.36 16L18.42 17L19.84 15.6L21.61 17.36ZM5.61001 9.83001L0.390015 4.64001L4.64001 0.390015L6.40001 2.16001L3.93001 4.64001L5.00001 5.70001L7.46001 3.22001L8.88001 4.64001L7.46001 6.05001L8.46001 7.05001L5.61001 9.83001ZM19.71 6.00001C20.1 5.61001 20.1 5.00001 19.71 4.59001L17.37 2.29001C17 1.90001 16.35 1.90001 15.96 2.29001L14.12 4.12001L17.87 7.87001L19.71 6.00001Z" fill="#38B6FF"/>
</svg>
