<svg width="22" height="20" viewBox="0 0 22 20" fill="none" xmlns="http://www.w3.org/2000/svg">
<path d="M21.6667 2.1V0.3L19.8667 0.0999999C19.7667 0.0999999 19.1667 0 18.1667 0C14.0667 0 11.0667 1.2 9.36665 3.3C8.06665 2.5 6.26665 2 4.16665 2C3.16665 2 2.46665 2.1 2.46665 2.1L0.56665 2.4L0.66665 4.1C0.76665 7.1 2.26665 12.8 7.46665 12.8H7.66665V16.2C3.86665 16.7 0.66665 18 0.66665 18V20H20.6667V18C20.6667 18 17.4667 16.7 13.6667 16.2V13C19.9667 12.9 21.6667 5.8 21.6667 2.1ZM10.6667 16H9.66665V10.4C9.66665 10.4 9.46665 7 6.66665 7C6.66665 7 8.16665 7.8 8.56665 10.7C8.16665 10.8 7.76665 10.8 7.46665 10.8C2.86665 10.8 2.66665 4.1 2.66665 4.1C2.66665 4.1 3.26665 4 4.16665 4C6.06665 4 9.16665 4.4 10.0667 7.1C10.5667 2.6 15.6667 2 18.1667 2C19.0667 2 19.6667 2.1 19.6667 2.1C19.6667 2.1 19.6667 11.1 13.3667 11.1H12.6667C12.6667 9.1 14.6667 6.1 14.6667 6.1C11.6667 7.1 11.6667 11 11.6667 11V16H10.6667Z" fill="#38B6FF"/>
</svg>
