<?xml version="1.0" standalone="no"?>
<!DOCTYPE svg PUBLIC "-//W3C//DTD SVG 20010904//EN"
 "http://www.w3.org/TR/2001/REC-SVG-20010904/DTD/svg10.dtd">
<svg version="1.0" xmlns="http://www.w3.org/2000/svg"
 width="3840.000000pt" height="3840.000000pt" viewBox="0 0 3840.000000 3840.000000"
 preserveAspectRatio="xMidYMid meet">

<g transform="translate(0.000000,3840.000000) scale(0.100000,-0.100000)"
fill="#000000" stroke="none">
<path d="M18782 30673 c-21 -18 -135 -187 -192 -284 -17 -30 -51 -85 -75 -124
-24 -38 -58 -97 -75 -129 -17 -33 -46 -85 -64 -115 -90 -148 -287 -550 -381
-776 -110 -263 -267 -700 -325 -905 -7 -25 -16 -58 -21 -75 -5 -16 -17 -57
-28 -90 -50 -152 -128 -492 -161 -705 -6 -36 -15 -81 -20 -100 -30 -113 -68
-426 -76 -630 -3 -74 -9 -175 -14 -225 -12 -125 -12 -591 0 -765 5 -80 12
-197 15 -260 10 -192 45 -429 105 -698 6 -23 10 -54 10 -68 0 -28 2 -34 44
-194 14 -52 32 -130 41 -172 9 -43 29 -119 45 -170 17 -51 35 -109 40 -128 67
-231 215 -635 312 -850 13 -30 33 -75 44 -100 39 -91 280 -566 294 -580 6 -6
24 -37 54 -92 11 -21 23 -38 28 -38 4 0 8 -7 8 -15 0 -8 4 -15 9 -15 5 0 16
-16 25 -35 19 -39 60 -87 68 -80 3 3 11 -1 18 -9 11 -14 14 -14 28 0 12 12 12
18 3 24 -7 4 -12 10 -11 14 4 15 -12 66 -21 66 -6 0 -9 6 -8 13 3 17 -10 67
-26 102 -30 65 -62 141 -70 170 -11 40 -9 33 -33 90 -12 28 -26 58 -32 67 -5
10 -10 24 -10 32 0 14 -53 144 -85 211 -15 31 -39 103 -70 210 -9 33 -20 67
-23 75 -8 23 -28 89 -46 155 -9 33 -20 69 -25 80 -5 11 -12 31 -15 45 -3 14
-26 102 -51 195 -72 267 -72 271 -105 445 -17 91 -33 176 -36 190 -12 59 -32
166 -33 180 -1 8 -7 60 -15 115 -12 88 -34 271 -51 420 -4 28 -8 61 -11 75
-11 59 -17 221 -17 440 1 216 4 327 18 710 4 117 15 237 30 345 5 31 21 158
29 235 18 155 35 244 71 390 19 79 35 166 39 215 1 10 21 74 33 105 7 17 7 19
27 115 20 95 20 97 56 200 17 50 33 103 35 119 3 15 8 33 13 40 6 6 15 35 21
65 6 30 15 59 20 65 13 17 40 104 34 110 -3 3 1 8 10 12 9 3 14 11 11 18 -3 7
9 38 26 69 17 31 27 57 24 57 -4 0 -1 7 6 15 7 9 10 18 7 21 -3 4 5 23 18 44
13 21 22 40 19 43 -3 3 4 8 15 12 13 4 21 15 21 29 0 12 5 27 11 33 7 7 12 20
13 30 1 10 19 51 39 92 20 41 37 82 37 92 0 10 5 21 10 24 6 3 10 17 10 31 0
13 5 24 10 24 6 0 10 6 10 13 0 6 32 76 70 155 39 79 70 149 70 155 1 7 42 93
93 192 l92 180 35 0 c33 0 36 -3 87 -100 84 -160 310 -619 371 -755 11 -25 43
-103 72 -175 28 -71 58 -143 65 -160 7 -16 18 -46 25 -65 7 -19 16 -44 21 -55
10 -21 143 -408 159 -460 5 -16 13 -46 19 -65 5 -19 17 -60 26 -90 31 -104 67
-235 72 -263 3 -15 9 -30 14 -33 5 -3 9 -18 9 -34 0 -16 5 -32 10 -35 6 -3 10
-14 10 -24 0 -10 8 -33 17 -52 10 -19 19 -42 20 -52 2 -10 13 -39 25 -65 12
-26 21 -50 20 -54 -1 -3 5 -28 12 -55 8 -26 18 -70 22 -98 4 -27 9 -57 11 -65
2 -8 5 -31 7 -50 3 -19 7 -42 10 -50 3 -8 8 -33 11 -55 3 -22 10 -65 15 -95
28 -164 56 -570 39 -570 -8 0 -1 -668 7 -727 4 -30 12 -44 25 -48 11 -4 16
-11 13 -18 -4 -7 -3 -9 1 -4 5 4 9 24 10 45 1 20 9 55 19 76 11 27 13 42 6 51
-8 9 -6 14 6 19 9 4 14 12 10 22 -3 8 1 28 9 44 8 16 17 42 19 57 2 15 6 35 9
43 3 8 8 33 11 55 2 22 8 51 11 65 21 77 26 189 25 500 0 190 -2 359 -4 375
-2 17 -7 62 -10 100 -6 58 -12 101 -21 135 -1 3 -5 28 -10 55 -4 28 -9 59 -12
70 -4 18 -37 257 -48 350 -3 22 -12 69 -19 105 -8 36 -17 88 -21 115 -4 28
-11 57 -15 65 -5 9 -11 36 -14 60 -7 53 -10 68 -19 95 -3 11 -8 31 -11 45 -19
102 -39 193 -51 235 -8 28 -24 86 -36 130 -29 112 -58 210 -79 275 -10 30 -40
123 -65 205 -26 83 -56 173 -66 200 -10 28 -40 109 -65 180 -25 72 -64 175
-86 230 -49 124 -69 181 -66 192 1 4 -5 24 -14 44 -9 20 -19 47 -23 60 -12 37
-261 525 -293 572 -15 23 -34 56 -42 72 -8 17 -40 71 -71 120 -31 50 -70 117
-88 150 -37 69 -56 94 -91 118 -30 21 -33 21 -58 0z"/>
<path d="M23878 26360 c-59 -5 -165 -19 -235 -30 -70 -11 -144 -22 -163 -25
-166 -22 -454 -72 -554 -96 -44 -10 -103 -19 -130 -19 -28 0 -78 -7 -111 -15
-124 -29 -472 -150 -622 -216 -24 -11 -45 -19 -48 -19 -3 0 -61 -27 -130 -60
-69 -33 -127 -60 -129 -60 -2 0 -52 -28 -112 -61 -60 -34 -134 -75 -164 -92
-132 -72 -405 -267 -576 -410 -151 -125 -416 -397 -604 -616 -30 -36 -66 -76
-79 -90 -127 -139 -512 -696 -606 -878 -11 -21 -37 -67 -59 -103 -118 -196
-378 -758 -498 -1075 -16 -44 -44 -116 -60 -160 -76 -198 -88 -238 -88 -286 0
-27 4 -49 9 -49 9 0 77 132 151 295 95 208 309 559 590 970 19 28 40 58 45 67
43 69 301 418 394 533 22 28 55 68 73 91 87 109 154 184 326 363 169 176 326
317 473 425 88 64 338 236 344 236 4 0 23 14 44 31 21 16 52 38 69 47 17 9 75
42 129 73 130 73 129 73 292 154 280 139 700 288 956 340 17 3 48 10 70 14
351 73 565 100 950 121 185 10 616 13 639 4 29 -11 15 -100 -34 -219 -100
-245 -284 -622 -422 -865 -232 -410 -473 -758 -709 -1025 -19 -22 -50 -60 -69
-85 -44 -57 -163 -186 -405 -438 -181 -189 -534 -473 -710 -573 -22 -12 -87
-49 -145 -82 -114 -65 -342 -182 -460 -236 -74 -34 -298 -121 -312 -121 -4 0
-31 -11 -60 -24 -29 -13 -69 -27 -88 -31 -19 -4 -57 -17 -85 -30 -27 -13 -63
-27 -80 -31 -16 -4 -32 -8 -35 -9 -3 -1 -21 -5 -40 -9 -91 -20 -140 -38 -133
-48 4 -7 0 -9 -10 -5 -9 3 -18 0 -21 -9 -3 -8 -16 -14 -30 -14 -14 0 -37 -5
-52 -10 -15 -6 -52 -12 -81 -13 -29 -1 -53 -5 -53 -9 0 -5 -16 -8 -35 -8 -19
0 -67 -11 -107 -24 -95 -30 -237 -54 -368 -62 -58 -3 -108 -8 -111 -9 -6 -4
-65 -11 -179 -20 -41 -3 -113 -11 -160 -17 -47 -6 -101 -12 -120 -13 -45 -3
-93 -13 -154 -33 -46 -14 -48 -16 -25 -24 104 -39 512 -61 1089 -58 271 1 342
8 630 60 63 11 131 23 150 26 160 24 657 165 645 183 -1 3 11 7 29 8 32 1 140
46 132 54 -2 2 5 5 17 5 12 1 51 15 87 32 36 16 80 35 98 42 17 7 32 17 32 22
0 6 -7 7 -15 4 -54 -22 -52 -21 -32 -2 12 13 25 16 46 11 30 -6 47 1 226 100
44 25 87 48 96 52 75 36 438 292 570 402 296 248 609 566 816 831 230 295 363
483 492 697 32 54 86 142 120 195 33 53 61 100 61 103 0 4 14 26 30 50 17 24
30 46 30 49 0 3 14 29 31 58 28 47 91 167 179 338 45 86 140 290 162 345 11
28 25 64 32 80 33 76 57 136 84 210 17 44 38 100 47 125 9 25 28 79 42 120 13
41 37 111 52 155 16 44 39 113 51 153 13 40 27 75 32 78 4 3 8 16 8 29 0 27 4
25 -115 44 -38 7 -95 16 -125 21 -136 24 -312 51 -395 60 -125 14 -597 21
-727 10z m-1578 -4184 c0 -2 -7 -7 -16 -10 -8 -3 -12 -2 -9 4 6 10 25 14 25 6z
m-40 -20 c0 -2 -7 -7 -16 -10 -8 -3 -12 -2 -9 4 6 10 25 14 25 6z m-124 -74
c-3 -5 -15 -12 -26 -15 -11 -3 -18 -1 -14 4 3 5 12 9 20 9 8 0 14 5 14 12 0 6
3 9 6 5 3 -3 3 -10 0 -15z"/>
<path d="M13167 26284 c-1 -1 -51 -4 -112 -8 -60 -3 -123 -8 -140 -11 -16 -2
-86 -6 -155 -9 -202 -9 -299 -18 -317 -31 -14 -11 -15 -18 -6 -46 66 -200 156
-456 164 -463 5 -6 9 -17 9 -25 0 -13 58 -169 137 -371 94 -239 279 -618 442
-902 11 -21 29 -53 39 -70 67 -117 224 -360 277 -427 11 -14 40 -56 65 -93 25
-37 50 -68 57 -68 13 0 43 -38 43 -55 0 -5 -5 -3 -10 5 -5 8 -10 12 -10 8 0
-17 103 -146 120 -151 11 -3 20 -11 20 -19 0 -10 -3 -9 -10 2 -7 11 -10 11
-10 2 0 -7 16 -30 35 -50 19 -20 35 -40 35 -43 0 -3 10 -17 21 -30 12 -13 33
-40 48 -59 14 -19 35 -44 46 -56 11 -12 42 -47 69 -77 29 -34 54 -53 62 -50 9
3 12 0 9 -9 -4 -9 14 -35 43 -66 28 -29 48 -52 46 -52 -2 0 21 -27 52 -60 31
-33 61 -57 66 -54 5 3 7 1 6 -5 -4 -12 89 -109 174 -182 35 -30 65 -57 66 -62
2 -4 8 -5 13 -1 5 3 9 1 9 -5 0 -6 39 -40 87 -75 70 -52 93 -64 112 -59 20 5
23 3 18 -10 -6 -16 34 -67 52 -67 4 0 21 -11 37 -25 26 -22 44 -31 44 -22 0 2
-29 25 -66 51 -36 27 -63 50 -61 53 6 6 77 -37 77 -48 0 -4 16 -15 35 -24 38
-19 74 -54 43 -42 -10 4 -18 2 -18 -4 0 -7 9 -9 21 -6 16 4 38 -7 80 -39 31
-24 60 -44 64 -44 3 0 21 -11 38 -24 18 -14 43 -29 57 -34 41 -16 151 -102
145 -113 -4 -6 4 -8 21 -5 28 5 69 -18 59 -34 -2 -4 8 -6 24 -4 18 2 36 -4 49
-16 12 -11 24 -20 27 -20 3 0 24 -12 46 -26 23 -14 48 -27 58 -29 39 -8 91
-36 85 -46 -4 -7 1 -9 15 -4 14 4 23 1 27 -9 3 -9 10 -16 15 -16 4 0 6 8 2 18
-6 15 -4 15 15 -2 12 -11 22 -16 22 -12 0 3 18 -5 40 -19 22 -14 40 -22 40
-19 0 4 7 0 17 -7 9 -8 23 -14 32 -15 47 -3 52 -5 45 -15 -5 -8 1 -10 20 -7
18 4 26 1 26 -8 0 -8 9 -14 20 -14 11 0 20 -4 20 -10 0 -5 18 -10 40 -10 22 0
40 -4 40 -10 0 -5 9 -10 21 -10 13 0 18 4 13 13 -4 6 4 2 18 -11 19 -17 34
-22 57 -19 19 3 34 0 42 -10 7 -8 23 -13 35 -10 16 3 21 0 17 -11 -5 -12 2
-14 35 -10 28 2 43 -1 46 -9 3 -7 12 -13 20 -13 10 0 13 6 9 17 -5 12 -1 11
15 -5 27 -27 59 -35 116 -31 26 3 44 0 43 -6 -1 -5 10 -10 25 -10 14 1 24 -4
21 -9 -4 -5 1 -7 10 -3 10 3 17 2 17 -3 0 -14 27 -12 36 2 4 7 3 8 -4 4 -7 -4
-12 -2 -12 3 0 14 0 14 48 -3 22 -8 43 -12 46 -9 3 4 6 1 6 -6 0 -9 8 -11 26
-7 14 4 23 3 21 -1 -3 -5 3 -9 13 -9 10 0 16 5 13 11 -2 8 22 11 79 9 150 -4
142 -2 128 -19 -10 -12 -10 -15 2 -15 8 0 19 5 24 10 12 12 47 2 38 -11 -3 -5
2 -9 11 -9 9 0 14 4 10 9 -3 6 6 7 22 2 16 -4 54 -6 86 -5 31 2 57 0 57 -4 0
-4 12 -8 28 -8 103 -6 169 -13 184 -19 10 -4 28 -7 40 -7 34 -1 293 12 363 17
33 3 96 7 140 10 97 7 248 25 254 30 8 8 -22 35 -39 35 -9 0 -20 3 -23 6 -4 4
-19 8 -34 9 -16 2 -84 8 -153 15 -69 7 -147 14 -175 16 -128 8 -195 15 -255
28 -70 16 -129 26 -171 31 -14 1 -41 7 -60 13 -33 10 -78 19 -142 27 -17 3
-46 9 -64 14 -17 5 -34 7 -37 4 -3 -3 -11 -1 -18 4 -10 8 -71 24 -98 25 -3 0
-16 5 -30 10 -32 13 -70 21 -92 20 -10 0 -18 4 -18 9 0 6 -9 7 -20 4 -11 -4
-20 -2 -20 4 0 6 -13 11 -29 11 -16 0 -48 7 -72 15 -24 9 -49 13 -56 11 -7 -3
-15 -1 -18 4 -3 5 -12 7 -19 4 -8 -3 -17 -1 -21 5 -3 6 -16 11 -28 11 -12 0
-33 9 -46 19 -13 10 -32 16 -42 14 -11 -3 -21 1 -25 11 -3 9 -10 14 -14 11 -4
-3 -28 6 -52 20 -23 14 -49 25 -56 25 -12 0 -51 16 -157 65 -16 7 -48 21 -70
30 -79 33 -210 98 -227 113 -10 8 -18 11 -18 7 0 -5 -10 1 -22 12 -33 29 -67
45 -80 37 -6 -4 -8 -3 -5 3 4 6 -15 21 -41 34 -26 13 -56 32 -66 41 -11 10
-26 18 -33 18 -7 0 -13 5 -13 10 0 6 -6 10 -13 10 -18 0 -67 24 -67 33 0 4 -7
7 -15 7 -8 0 -15 4 -15 8 0 4 -15 12 -32 18 -18 5 -32 15 -31 21 2 7 -4 10
-12 7 -8 -4 -17 1 -21 10 -3 9 -10 13 -15 10 -10 -6 -81 42 -87 58 -2 5 -8 6
-13 2 -5 -3 -9 0 -9 5 0 6 -5 11 -11 11 -6 0 -28 14 -49 30 -21 17 -43 30 -49
30 -6 0 -11 3 -11 8 0 4 -8 12 -19 17 -21 11 -112 81 -155 119 -16 14 -32 26
-35 26 -7 0 -40 28 -140 118 -113 102 -169 160 -173 179 -2 10 -11 17 -20 17
-10 -1 -19 9 -23 23 -4 16 -11 23 -20 19 -8 -3 -14 -2 -14 2 4 27 -3 42 -22
42 -11 0 -18 4 -15 8 3 5 -6 19 -19 30 -14 12 -25 27 -25 33 0 5 -4 8 -8 5
-12 -7 -78 75 -74 92 2 10 -2 13 -12 9 -10 -4 -13 -1 -9 8 3 9 -8 26 -26 42
-17 15 -31 33 -31 40 0 7 -7 13 -15 13 -8 0 -15 3 -15 8 0 11 -74 112 -105
142 -14 14 -25 30 -25 37 0 6 -4 13 -8 15 -4 2 -30 32 -57 68 -27 36 -52 67
-56 70 -14 11 -79 101 -79 110 0 6 -4 10 -8 10 -4 0 -16 14 -26 31 -10 17 -32
47 -49 66 -17 20 -32 41 -33 49 -1 7 -15 30 -31 51 -60 77 -110 149 -137 193
-15 25 -49 79 -77 120 -27 41 -53 85 -59 98 -5 12 -30 54 -55 92 -25 38 -45
74 -45 79 0 6 -4 11 -10 11 -5 0 -10 6 -10 14 0 8 -3 16 -7 18 -5 2 -19 23
-32 48 -53 103 -63 120 -71 120 -4 0 -10 13 -13 29 -3 16 -12 35 -20 42 -7 8
-17 26 -20 41 -4 15 -14 33 -22 42 -8 8 -15 18 -15 23 0 11 -55 141 -63 150
-4 3 -7 -2 -7 -13 -1 -20 -59 92 -60 114 0 7 -11 37 -24 65 -31 68 -40 90 -41
102 0 6 -7 21 -15 35 -7 14 -13 45 -12 70 2 33 0 41 -8 30 -12 -19 -13 0 0 20
6 10 39 19 97 26 111 14 811 18 878 5 28 -5 121 -11 208 -12 86 -2 157 -6 157
-10 0 -4 18 -7 39 -7 22 0 56 -5 78 -11 21 -6 65 -11 98 -12 33 -1 67 -6 75
-10 22 -11 127 -29 171 -29 21 0 41 -5 44 -10 4 -6 24 -9 46 -7 23 2 43 -1 49
-8 6 -7 25 -12 43 -10 17 1 39 -4 47 -11 14 -11 58 -21 123 -28 15 -1 33 -8
39 -14 7 -7 25 -12 40 -12 15 0 28 -5 28 -11 0 -6 16 -9 40 -8 29 2 48 -3 70
-20 18 -12 34 -20 37 -17 3 3 21 -1 41 -10 19 -8 37 -12 40 -9 2 2 14 -2 26
-10 11 -8 30 -15 43 -15 12 0 25 -5 28 -10 4 -6 10 -8 15 -5 5 3 14 0 22 -7 7
-7 23 -14 35 -15 11 -1 47 -15 80 -30 32 -15 61 -27 65 -28 4 0 13 -6 20 -12
6 -7 17 -13 24 -13 19 0 64 -26 57 -34 -4 -3 4 -5 18 -4 16 2 23 -2 21 -11 -2
-9 4 -12 18 -8 13 3 23 0 27 -9 3 -8 13 -13 22 -12 9 2 15 -3 13 -9 -1 -7 5
-13 14 -13 9 0 27 -9 41 -20 27 -21 48 -27 39 -11 -4 5 3 7 14 4 11 -3 20 -10
20 -15 0 -5 -4 -6 -10 -3 -5 3 -10 1 -10 -5 0 -7 8 -9 19 -5 10 3 24 -1 31
-10 7 -8 18 -15 24 -15 7 0 45 -20 85 -45 40 -25 74 -45 76 -45 1 0 29 -17 61
-39 64 -42 110 -56 118 -35 5 14 -17 37 -27 27 -4 -3 -7 1 -7 11 0 10 5 14 12
10 7 -4 8 -3 4 5 -4 6 -10 9 -14 7 -4 -2 -27 16 -52 40 -25 24 -48 44 -52 44
-5 0 -8 7 -8 16 0 10 -6 14 -15 10 -11 -4 -15 2 -15 20 0 21 -4 25 -17 20 -10
-4 -14 -4 -10 0 8 8 -31 54 -45 54 -5 0 -29 19 -53 41 -24 23 -68 57 -97 76
-29 19 -63 45 -76 59 -13 13 -30 24 -38 24 -8 0 -17 6 -20 14 -3 8 -11 13 -18
10 -6 -2 -25 9 -41 26 -16 16 -37 30 -47 30 -10 0 -18 7 -18 15 0 8 -6 12 -13
9 -7 -2 -27 9 -44 25 -17 16 -56 42 -87 57 -31 15 -56 31 -56 37 0 5 -7 7 -15
3 -8 -3 -15 -2 -15 2 0 7 -117 68 -175 92 -49 20 -212 92 -227 101 -10 5 -23
9 -30 9 -7 0 -25 6 -40 14 -15 8 -41 17 -58 21 -37 8 -80 29 -89 44 -4 5 -18
11 -33 13 -15 2 -30 7 -34 11 -4 4 -18 7 -31 7 -13 0 -23 4 -23 9 0 5 -12 9
-26 9 -14 0 -35 4 -47 10 -12 5 -42 15 -67 22 -25 7 -54 16 -65 20 -48 20
-266 69 -340 77 -63 7 -90 11 -90 13 0 1 -11 3 -25 4 -114 9 -260 37 -260 50
0 6 -5 4 -10 -4 -6 -9 -13 -11 -17 -5 -5 6 -42 11 -83 12 -41 1 -151 5 -245 9
-146 5 -553 11 -558 8z m886 -207 c-3 -5 -11 -6 -19 -3 -8 3 -14 0 -14 -6 0
-6 -3 -9 -6 -5 -10 10 3 23 25 23 11 0 17 -4 14 -9z m-107 -22 c-1 -8 -6 -18
-11 -22 -4 -4 -5 -3 -1 4 3 6 2 14 -4 18 -15 9 -12 25 4 19 8 -3 13 -12 12
-19z m-346 5 c0 -5 -2 -10 -4 -10 -3 0 -8 5 -11 10 -3 6 -1 10 4 10 6 0 11 -4
11 -10z m625 -14 c8 4 15 2 15 -4 0 -19 -30 -21 -40 -2 -13 24 -13 40 1 18 5
-10 16 -15 24 -12z m50 -4 c-3 -3 -11 0 -18 7 -9 10 -8 11 6 5 10 -3 15 -9 12
-12z m-1509 -4 c4 -6 2 -14 -4 -16 -25 -8 -11 -21 17 -16 20 4 30 2 34 -10 4
-10 1 -16 -9 -16 -8 0 -12 -5 -9 -11 4 -6 13 -8 21 -5 8 3 14 -1 14 -10 0 -11
5 -14 18 -9 13 5 14 4 5 -6 -24 -24 -53 -21 -65 6 -7 15 -17 24 -25 21 -7 -3
-13 0 -13 7 0 8 -4 7 -11 -3 -11 -15 -9 -6 7 52 6 21 6 22 -12 8 -18 -14 -18
-14 -5 3 16 20 27 22 37 5z m68 4 c2 -4 0 -14 -6 -22 -8 -12 -9 -12 -5 2 3 9
1 19 -6 22 -9 3 -9 5 0 5 6 1 14 -3 17 -7z m73 -138 c-3 -3 -12 -4 -19 -1 -8
3 -5 6 6 6 11 1 17 -2 13 -5z m158 -574 c3 -5 1 -10 -4 -10 -6 0 -11 5 -11 10
0 6 2 10 4 10 3 0 8 -4 11 -10z m28 -135 c-3 -8 -10 -15 -15 -15 -7 0 -6 5 1
13 6 8 7 18 3 22 -4 5 -2 5 5 1 7 -4 10 -13 6 -21z m37 -31 c0 -8 -4 -12 -10
-9 -5 3 -10 10 -10 16 0 5 5 9 10 9 6 0 10 -7 10 -16z m40 -74 c0 -5 -4 -10
-10 -10 -5 0 -10 5 -10 10 0 6 5 10 10 10 6 0 10 -4 10 -10z m30 -41 c0 -11
-3 -11 -24 -3 -23 9 -20 23 4 17 11 -3 20 -9 20 -14z m-12 -47 c6 -18 -15 -14
-22 4 -4 10 -1 14 6 12 6 -2 14 -10 16 -16z m72 -69 c13 -11 13 -12 -1 -13 -9
0 -21 11 -27 25 -7 16 -17 23 -27 19 -8 -3 -15 -2 -15 4 0 20 25 19 40 -2 8
-12 21 -26 30 -33z m-75 17 c4 -6 10 -8 14 -6 4 3 19 -8 34 -24 16 -17 23 -31
17 -35 -13 -8 -13 -25 1 -25 5 0 7 6 3 13 -6 10 -4 10 7 0 7 -7 21 -13 31 -13
10 0 18 -4 18 -10 0 -14 -24 -12 -39 3 -10 10 -11 9 -6 -5 4 -10 12 -18 17
-18 6 0 8 -11 6 -25 -6 -29 0 -32 18 -7 11 14 13 15 14 2 0 -9 -6 -22 -12 -28
-10 -10 -8 -14 10 -18 12 -4 22 -10 22 -15 0 -5 10 -9 23 -9 18 0 19 -2 7 -11
-11 -7 -12 -12 -3 -15 7 -3 9 -12 6 -20 -3 -9 1 -14 12 -14 12 0 15 -5 10 -20
-5 -14 -2 -20 9 -20 9 0 16 -9 16 -21 0 -11 4 -17 10 -14 7 4 9 -2 4 -19 -4
-19 -2 -28 10 -32 9 -3 14 -10 11 -14 -3 -4 2 -10 10 -14 8 -3 15 -10 15 -16
0 -6 -6 -8 -12 -4 -7 4 -5 -2 5 -13 9 -11 17 -25 17 -31 0 -7 6 -12 14 -12 9
0 14 -13 14 -38 1 -33 -2 -38 -21 -38 -23 1 -47 18 -47 34 0 5 -7 15 -15 22
-8 7 -13 16 -10 20 8 13 -17 60 -31 60 -7 0 -16 5 -20 12 -5 7 -2 9 7 4 8 -4
2 4 -13 18 -32 29 -35 38 -10 29 15 -5 16 -4 1 8 -23 20 -29 44 -16 60 10 10
8 10 -6 0 -20 -16 -19 -17 -37 29 -8 19 -21 40 -29 46 -8 6 -12 20 -9 32 4 14
-2 28 -18 43 -17 16 -24 33 -24 60 0 48 -8 69 -27 69 -8 0 -11 5 -8 10 3 6 -1
13 -9 16 -17 7 -22 24 -7 24 6 0 13 -5 16 -10z m368 -603 c3 -8 -4 -14 -20
-15 -34 -3 -52 9 -27 19 29 11 41 10 47 -4z m80 -90 c-7 -11 -23 2 -23 19 0
12 2 12 14 2 8 -7 12 -16 9 -21z m-31 -69 c-7 -7 -12 -8 -12 -2 0 14 12 26 19
19 2 -3 -1 -11 -7 -17z m33 -8 c3 -5 -1 -10 -10 -10 -9 0 -13 5 -10 10 3 6 8
10 10 10 2 0 7 -4 10 -10z m20 -31 c10 -15 -1 -23 -20 -15 -9 3 -13 10 -10 16
8 13 22 13 30 -1z m85 -9 c0 -5 -2 -10 -4 -10 -3 0 -8 5 -11 10 -3 6 -1 10 4
10 6 0 11 -4 11 -10z m-40 -21 c0 -11 -4 -18 -9 -15 -5 4 -11 1 -13 -5 -4 -12
-38 -1 -38 12 0 5 9 9 19 9 11 0 23 5 26 10 10 16 15 12 15 -11z m-232 -109
c7 -11 9 -20 4 -20 -4 0 -13 9 -20 20 -7 11 -9 20 -4 20 4 0 13 -9 20 -20z
m366 -5 c3 -8 1 -15 -4 -15 -6 0 -10 7 -10 15 0 8 2 15 4 15 2 0 6 -7 10 -15z
m-326 -60 c-3 -3 -9 2 -12 12 -6 14 -5 15 5 6 7 -7 10 -15 7 -18z m420 -115
c-2 -7 -10 1 -17 16 -12 27 -11 28 4 12 10 -9 16 -21 13 -28z m-58 10 c0 -5
-7 -7 -15 -4 -8 4 -15 8 -15 10 0 2 7 4 15 4 8 0 15 -4 15 -10z m-275 -10 c3
-5 1 -10 -4 -10 -6 0 -11 5 -11 10 0 6 2 10 4 10 3 0 8 -4 11 -10z m319 -45
c-4 -8 -11 -12 -16 -9 -6 4 -5 10 3 15 19 12 19 11 13 -6z m96 -14 c0 -12 -28
-22 -34 -12 -3 5 -3 11 1 15 9 9 33 7 33 -3z m36 -37 c-9 -6 -13 -19 -9 -32 6
-24 -6 -29 -25 -10 -9 9 -12 9 -12 0 0 -7 -6 -12 -14 -12 -9 0 -14 11 -13 34
1 26 5 33 17 31 9 -2 23 5 31 16 13 19 14 19 27 2 10 -15 10 -20 -2 -29z m-91
-3 c3 -5 1 -12 -4 -15 -5 -3 -11 1 -15 9 -6 16 9 21 19 6z m118 -58 c-5 -13
-2 -15 15 -11 15 4 19 2 15 -9 -3 -8 -12 -12 -20 -9 -8 3 -17 6 -19 6 -2 0 -4
12 -4 26 0 14 4 23 10 19 5 -3 6 -13 3 -22z m-23 -17 c0 -3 -4 -8 -10 -11 -5
-3 -10 -1 -10 4 0 6 5 11 10 11 6 0 10 -2 10 -4z m-42 -44 c-12 -14 -10 -14
11 -3 18 10 25 10 31 1 5 -9 9 -9 14 -1 12 19 28 12 21 -9 -5 -14 -2 -20 10
-20 8 0 18 -6 21 -14 3 -8 13 -12 23 -9 12 3 33 -10 60 -36 23 -23 37 -40 30
-39 -6 2 -14 -3 -16 -10 -3 -8 1 -10 11 -6 11 4 16 1 16 -11 0 -10 -5 -13 -12
-9 -6 4 -8 3 -4 -4 3 -6 -4 -18 -16 -26 -19 -13 -20 -19 -10 -41 7 -15 8 -25
2 -25 -6 0 -10 7 -10 15 0 8 -8 15 -17 15 -10 0 -14 4 -8 8 18 13 13 48 -8 49
-10 1 -25 10 -31 19 -7 9 -18 14 -24 10 -7 -4 -12 -2 -12 3 0 15 23 14 38 -1
7 -7 12 -8 12 -2 0 17 -22 33 -39 27 -14 -4 -14 -3 -1 6 21 14 3 28 -19 14
-17 -10 -20 -8 -26 14 -6 24 -7 25 -21 7 -13 -18 -14 -18 -8 -1 5 13 -2 27
-19 43 -23 21 -25 28 -15 44 7 10 16 16 20 13 5 -2 3 -12 -4 -21z m269 -168
c-3 -3 -12 -4 -19 -1 -8 3 -5 6 6 6 11 1 17 -2 13 -5z m-356 -46 c15 -28 5
-21 -21 15 -15 20 -17 27 -6 18 9 -8 22 -23 27 -33z m349 11 c0 -15 -4 -19
-16 -15 -14 5 -15 4 -4 -9 7 -9 20 -13 29 -10 11 3 9 0 -4 -11 -19 -16 -19
-16 6 -10 18 4 33 0 49 -14 13 -11 17 -20 10 -20 -7 0 -10 -8 -7 -20 3 -10 2
-21 -2 -23 -3 -2 -1 -2 6 -1 6 2 17 -4 23 -11 7 -8 16 -13 20 -10 4 3 10 -4
13 -14 2 -11 14 -24 26 -30 17 -10 21 -9 21 4 0 9 5 13 10 10 6 -3 10 -15 10
-26 0 -10 5 -19 11 -19 5 0 7 5 4 10 -3 6 -1 10 5 10 13 0 30 -41 22 -54 -3
-5 0 -6 6 -2 6 3 13 2 16 -3 4 -5 1 -13 -5 -17 -18 -11 18 -33 43 -26 15 4 19
1 16 -9 -3 -8 -11 -13 -18 -11 -11 3 -11 0 0 -13 10 -12 15 -13 21 -4 4 7 14
9 24 6 9 -4 13 -12 10 -17 -4 -6 -3 -10 2 -9 4 1 14 1 22 0 12 -1 12 -4 -1
-18 -16 -19 -14 -43 3 -43 6 0 7 5 4 10 -3 6 -2 10 2 10 5 0 14 -9 21 -20 6
-11 18 -17 25 -14 7 2 21 -4 31 -15 10 -11 23 -18 27 -15 5 3 10 0 10 -5 2
-15 4 -23 13 -42 4 -9 6 -20 5 -25 -3 -20 2 -26 14 -15 10 8 19 7 33 -4 18
-14 18 -14 -3 -10 -16 3 -20 0 -16 -11 3 -8 10 -14 16 -14 6 0 7 -3 4 -7 -9
-9 13 -34 24 -27 5 3 6 -1 4 -8 -8 -21 42 -21 54 0 6 9 11 12 11 5 0 -6 -4
-15 -10 -18 -18 -11 -11 -35 10 -35 24 0 64 -37 49 -45 -5 -4 -7 -10 -4 -15 3
-4 -2 -11 -11 -14 -8 -3 -12 -2 -9 4 3 6 -2 10 -12 11 -10 0 -13 3 -5 6 6 2
12 12 12 20 0 13 -3 13 -15 3 -12 -10 -15 -10 -15 4 0 19 -11 21 -28 4 -9 -9
-12 -9 -13 3 -1 7 0 19 1 24 1 5 -2 7 -6 3 -4 -4 -17 4 -30 17 -13 14 -29 25
-37 25 -7 0 -23 14 -35 30 -13 17 -30 30 -40 30 -21 1 -54 25 -45 33 3 4 2 7
-3 7 -6 0 -19 8 -30 18 -10 10 -23 20 -29 23 -5 2 -9 7 -8 11 2 4 -7 5 -18 3
-18 -4 -19 -2 -7 12 7 10 8 14 1 10 -16 -10 -43 2 -43 19 0 8 -5 14 -12 14 -6
0 -8 3 -5 7 4 3 -2 13 -13 20 -11 8 -18 19 -15 24 4 5 -1 9 -9 9 -21 0 -21 19
0 27 13 5 12 9 -7 30 -13 13 -29 21 -35 19 -14 -5 -64 15 -64 27 0 4 5 7 10 7
6 0 10 7 10 15 0 8 7 15 15 15 8 0 15 -5 15 -11 0 -5 -6 -7 -12 -3 -7 4 -5 -2
5 -13 9 -11 14 -24 10 -29 -5 -5 -4 -5 2 -1 11 9 16 67 6 65 -15 -4 -80 24
-85 37 -7 20 -26 19 -26 0 0 -8 -5 -15 -11 -15 -5 0 -7 5 -4 10 3 6 1 10 -5
10 -7 0 -10 6 -7 14 9 23 -5 27 -25 9 -18 -16 -19 -16 -14 10 4 22 0 30 -20
39 -13 6 -24 15 -24 20 0 5 4 7 8 4 4 -2 14 -1 22 5 12 7 11 9 -6 9 -30 0 -47
41 -28 69 20 28 54 28 54 0z m-320 -54 c7 -9 8 -15 2 -15 -5 0 -12 7 -16 15
-3 8 -4 15 -2 15 2 0 9 -7 16 -15z m425 -66 c-3 -4 -12 -6 -20 -3 -8 4 -13 10
-10 15 3 4 12 6 20 3 8 -4 13 -10 10 -15z m-140 1 c3 -5 1 -10 -4 -10 -6 0
-11 5 -11 10 0 6 2 10 4 10 3 0 8 -4 11 -10z m189 -41 c-8 -14 -24 -10 -24 6
0 9 6 12 15 9 8 -4 12 -10 9 -15z m-61 -64 c4 -8 2 -17 -3 -20 -6 -4 -10 -2
-10 3 0 5 -10 14 -22 20 -23 11 -23 11 3 11 15 1 29 -6 32 -14z m-188 -75 c3
-5 1 -10 -4 -10 -6 0 -11 5 -11 10 0 6 2 10 4 10 3 0 8 -4 11 -10z m622 -232
c-3 -8 -6 -5 -6 6 -1 11 2 17 5 13 3 -3 4 -12 1 -19z m232 -202 c18 -22 -2
-25 -21 -4 -14 13 -15 18 -4 18 7 0 19 -6 25 -14z m-29 -37 c0 -19 1 -19 27
-2 19 13 28 14 31 5 2 -7 8 -10 13 -6 13 7 49 -5 49 -17 0 -6 -4 -8 -9 -5 -5
3 -12 -1 -15 -10 -9 -23 -7 -36 4 -29 6 3 10 3 11 -2 0 -4 2 -16 4 -25 4 -23
-14 -23 -22 -1 -11 27 -43 54 -56 47 -7 -4 -8 -3 -4 2 5 5 17 9 28 9 26 0 19
18 -8 20 -12 0 -20 -1 -18 -3 2 -2 -2 -10 -8 -17 -18 -19 -55 12 -49 42 5 27
22 21 22 -8z m-246 -65 c8 -20 -8 -17 -28 5 -17 19 -17 19 2 14 12 -3 23 -11
26 -19z m409 19 c-7 -2 -13 -11 -13 -19 0 -8 -5 -14 -10 -14 -7 0 -7 6 0 20 6
11 16 20 23 19 9 0 9 -2 0 -6z m37 -23 c0 -5 -8 -10 -17 -10 -15 0 -16 2 -3
10 19 12 20 12 20 0z m1985 -900 c3 -5 1 -10 -4 -10 -6 0 -11 5 -11 10 0 6 2
10 4 10 3 0 8 -4 11 -10z m38 -5 c-3 -9 -8 -14 -10 -11 -3 3 -2 9 2 15 9 16
15 13 8 -4z"/>
<path d="M12797 25949 c7 -7 15 -10 18 -7 3 3 -2 9 -12 12 -14 6 -15 5 -6 -5z"/>
<path d="M13255 24790 c3 -5 8 -10 11 -10 2 0 4 5 4 10 0 6 -5 10 -11 10 -5 0
-7 -4 -4 -10z"/>
<path d="M14030 23750 c0 -5 5 -10 11 -10 5 0 7 5 4 10 -3 6 -8 10 -11 10 -2
0 -4 -4 -4 -10z"/>
<path d="M14282 23325 c-14 -29 2 -34 18 -6 12 24 13 31 2 31 -5 0 -14 -11
-20 -25z"/>
<path d="M14488 23053 c7 -3 16 -2 19 1 4 3 -2 6 -13 5 -11 0 -14 -3 -6 -6z"/>
<path d="M14511 23036 c-9 -11 -5 -15 20 -20 23 -4 30 -10 25 -21 -3 -10 -2
-13 4 -10 14 9 8 37 -10 52 -19 16 -25 16 -39 -1z"/>
<path d="M14598 23023 c7 -3 16 -2 19 1 4 3 -2 6 -13 5 -11 0 -14 -3 -6 -6z"/>
<path d="M14725 22890 c-4 -16 -11 -30 -16 -30 -5 0 -9 -4 -9 -10 0 -5 8 -10
18 -10 13 0 18 10 19 40 3 47 -3 52 -12 10z"/>
<path d="M14750 22870 c0 -5 5 -10 10 -10 6 0 10 5 10 10 0 6 -4 10 -10 10 -5
0 -10 -4 -10 -10z"/>
<path d="M14770 22821 c0 -6 4 -13 10 -16 6 -3 7 1 4 9 -7 18 -14 21 -14 7z"/>
<path d="M14962 22388 c7 -7 22 -20 33 -28 15 -10 14 -7 -4 13 -14 15 -29 27
-33 27 -5 0 -3 -6 4 -12z"/>
<path d="M18536 22221 c-4 -7 -5 -15 -2 -18 9 -9 19 4 14 18 -4 11 -6 11 -12
0z"/>
<path d="M15234 22205 c21 -11 32 -13 40 -5 8 8 6 9 -5 5 -10 -4 -20 -2 -24 4
-3 6 -14 11 -23 11 -11 0 -6 -6 12 -15z"/>
<path d="M16950 21650 c0 -5 5 -10 11 -10 5 0 7 5 4 10 -3 6 -8 10 -11 10 -2
0 -4 -4 -4 -10z"/>
<path d="M16995 21649 c-4 -6 -5 -12 -2 -15 2 -3 7 2 10 11 7 17 1 20 -8 4z"/>
<path d="M16910 21640 c0 -5 5 -10 11 -10 5 0 7 5 4 10 -3 6 -8 10 -11 10 -2
0 -4 -4 -4 -10z"/>
<path d="M36025 18468 c4 -18 9 -41 11 -50 3 -10 1 -18 -5 -18 -6 0 -11 4 -11
8 0 5 -6 16 -13 26 -12 17 -16 14 -44 -30 -17 -27 -60 -105 -95 -174 -36 -69
-77 -145 -91 -170 -13 -25 -42 -76 -62 -115 -21 -38 -51 -95 -67 -125 -17 -30
-71 -134 -120 -230 -50 -96 -95 -180 -99 -185 -8 -11 -41 -74 -181 -345 -41
-80 -118 -226 -170 -325 -52 -99 -118 -223 -145 -275 -28 -52 -75 -140 -105
-195 -79 -145 -184 -355 -197 -394 -26 -81 -15 -91 106 -91 71 0 72 0 106 40
19 23 78 125 131 228 234 453 294 565 312 576 13 7 228 11 714 11 382 1 701 3
708 6 16 5 42 -40 233 -416 202 -399 220 -430 244 -430 11 -1 59 -5 106 -9
130 -12 146 -1 116 84 -14 40 -81 173 -107 210 -9 14 -36 61 -60 105 -24 44
-51 94 -60 110 -148 266 -220 400 -297 550 -36 72 -87 171 -113 220 -26 50
-81 155 -122 235 -157 302 -206 396 -230 440 -14 25 -48 88 -75 140 -28 52
-74 138 -103 190 -45 80 -103 189 -157 290 -7 14 -13 30 -13 36 0 15 -40 104
-46 104 -3 0 -3 -15 1 -32z m39 -563 c21 -39 59 -108 84 -155 25 -47 77 -143
117 -215 168 -303 355 -670 355 -697 0 -17 -31 -18 -620 -18 -341 0 -620 2
-620 5 0 9 85 181 113 230 31 52 53 91 107 190 18 33 68 121 110 195 43 74
124 226 180 338 75 147 108 202 119 200 9 -2 33 -35 55 -73z m640 -1225 c5
-17 4 -20 -2 -10 -5 8 -13 26 -16 40 -5 17 -4 20 2 10 5 -8 13 -26 16 -40z"/>
<path d="M1735 18468 c-60 -4 -120 -13 -133 -18 -13 -6 -32 -10 -42 -10 -31 0
-248 -75 -330 -114 -191 -90 -299 -164 -425 -290 -170 -170 -293 -389 -367
-651 -20 -71 -22 -103 -22 -280 0 -175 2 -211 22 -284 93 -351 304 -644 612
-848 110 -73 170 -103 315 -160 129 -50 169 -61 315 -83 41 -7 97 -16 123 -21
149 -28 483 4 659 64 299 102 489 236 628 443 47 69 131 228 158 299 20 54 49
178 61 260 34 248 39 336 22 364 -8 12 -88 14 -503 12 -271 -1 -497 -6 -502
-11 -4 -4 -10 -46 -13 -92 -4 -66 -2 -86 9 -96 11 -9 120 -12 419 -14 l404 -3
-3 -40 c-4 -47 -28 -124 -90 -290 -56 -152 -68 -174 -138 -265 -163 -211 -389
-349 -634 -389 -334 -53 -605 -30 -854 73 -405 168 -676 479 -757 871 -16 75
-16 296 0 395 37 228 143 418 338 607 236 228 506 340 888 368 202 15 553 -41
720 -115 116 -51 203 -94 238 -118 58 -39 116 -65 132 -58 18 6 29 66 22 116
-3 21 -17 55 -32 74 -67 88 -317 212 -523 261 -107 25 -111 26 -247 41 -143
15 -301 16 -470 2z"/>
<path d="M32660 18465 c-259 -28 -381 -58 -522 -131 -137 -71 -231 -162 -305
-294 -72 -128 -71 -381 2 -522 57 -110 181 -224 312 -288 70 -34 246 -95 320
-111 26 -5 64 -14 83 -19 58 -14 117 -26 298 -64 95 -20 197 -43 225 -51 29
-7 86 -23 127 -34 89 -24 222 -71 271 -96 100 -52 212 -152 247 -222 31 -60
43 -153 30 -225 -29 -168 -136 -287 -342 -382 -111 -52 -207 -74 -396 -92
-141 -14 -189 -14 -330 -4 -310 23 -539 85 -857 232 -46 21 -92 38 -103 38
-20 0 -21 -4 -15 -72 11 -121 21 -133 164 -206 130 -66 351 -146 448 -163 270
-45 396 -59 554 -59 91 0 192 5 225 10 248 42 289 53 424 110 258 110 409 277
450 499 13 71 13 227 -1 292 -15 71 -61 179 -100 236 -141 204 -364 309 -919
431 -130 28 -378 86 -475 111 -246 62 -354 121 -435 241 -85 125 -73 265 34
390 108 126 221 181 473 230 249 49 530 34 863 -45 137 -33 160 -42 190 -77
18 -20 38 -31 66 -35 58 -7 74 12 74 89 0 120 -45 157 -255 213 -189 50 -242
59 -430 75 -150 12 -237 11 -395 -5z"/>
<path d="M14070 18381 l-175 -6 4 -30 c2 -16 6 -592 10 -1280 l6 -1250 45 2
c25 1 84 3 132 5 47 2 89 6 92 9 3 3 27 3 53 -1 26 -4 60 -4 75 1 15 4 30 4
33 0 2 -4 26 -5 52 -1 27 4 56 4 66 -2 10 -5 24 -5 33 0 8 5 35 6 60 2 24 -4
46 -5 49 -2 2 3 181 6 397 6 339 1 395 -1 406 -14 8 -8 11 -10 8 -3 -4 6 -2
14 4 18 5 3 10 0 10 -7 0 -7 11 -14 25 -14 14 -1 25 1 25 5 0 3 15 7 33 8 52
3 191 26 202 33 6 3 30 12 55 19 25 7 62 22 83 32 22 10 45 19 52 19 23 0 170
88 167 100 -1 6 2 9 7 6 18 -11 111 50 111 72 0 5 12 14 26 20 14 7 22 17 19
22 -4 6 -1 9 6 8 7 -2 18 8 26 22 7 14 13 21 13 17 0 -13 30 20 30 33 0 6 5 8
10 5 6 -3 10 -3 10 2 0 4 12 22 26 38 128 147 191 281 235 503 19 93 20 129
16 326 -3 121 -8 228 -12 237 -3 9 -8 38 -10 65 -8 94 -10 103 -22 116 -7 6
-13 25 -13 40 0 28 -14 60 -37 85 -7 8 -10 20 -7 27 3 8 1 17 -5 21 -6 3 -11
14 -11 25 0 10 -7 21 -16 24 -9 4 -14 9 -11 12 3 3 -8 28 -24 55 -16 28 -29
54 -29 59 0 5 -6 13 -13 17 -7 4 -20 19 -28 33 -28 43 -113 122 -193 180 -88
63 -331 177 -436 204 -99 26 -249 54 -315 58 -11 1 -26 6 -34 12 -15 12 -1005
17 -1321 7z m1174 -162 c-3 -5 2 -9 10 -9 9 0 16 4 16 9 0 5 9 11 20 14 11 3
20 1 20 -3 0 -5 11 -5 25 -2 25 7 182 -1 240 -12 17 -3 46 -8 65 -11 19 -4 55
-12 80 -20 25 -8 49 -15 54 -14 5 0 12 -5 17 -12 4 -8 22 -14 40 -15 19 -1 39
-10 48 -22 9 -11 32 -25 51 -31 38 -12 73 -44 62 -57 -4 -5 0 -3 9 4 19 14 30
6 22 -16 -4 -9 -2 -13 4 -9 6 4 19 0 27 -9 9 -8 16 -12 16 -7 0 4 9 -5 20 -22
11 -16 20 -26 20 -22 0 5 12 -6 28 -25 15 -18 30 -34 34 -36 18 -9 58 -53 90
-102 61 -92 140 -312 122 -341 -3 -5 0 -9 7 -9 8 0 8 -4 -1 -15 -7 -8 -10 -28
-8 -44 2 -17 1 -28 -3 -26 -4 3 -9 -2 -12 -9 -3 -8 -2 -16 2 -18 5 -2 -1 -12
-11 -23 -17 -18 -19 -18 -12 -1 4 11 2 21 -7 27 -9 6 -10 12 -4 17 6 4 10 33
10 64 0 31 -2 54 -4 52 -12 -12 -38 30 -35 56 2 17 -1 30 -6 30 -6 0 -10 6
-10 13 0 7 -9 30 -19 51 -11 21 -17 44 -15 51 3 7 -4 18 -15 25 -12 6 -21 20
-21 30 0 11 -22 44 -49 73 -27 28 -62 66 -77 83 -70 76 -214 167 -287 181 -17
3 -37 9 -42 14 -10 7 -84 27 -125 34 -8 1 -22 5 -30 8 -8 3 -40 8 -70 12 -30
4 -65 8 -78 10 -12 2 -65 5 -116 7 -52 1 -92 6 -90 10 3 4 -12 5 -33 3 -22 -2
-41 2 -45 8 -6 9 -8 9 -8 0 0 -7 -5 -13 -11 -13 -5 0 -7 5 -4 10 3 6 1 10 -4
10 -6 0 -11 -6 -11 -12 0 -9 -2 -10 -8 -2 -10 15 -57 30 -48 15 4 -6 3 -11 -3
-11 -5 0 -12 6 -14 13 -4 8 -8 8 -14 2 -11 -14 -66 -14 -76 -1 -6 8 -10 7 -14
-1 -3 -10 -9 -9 -21 3 -11 11 -17 13 -20 5 -6 -17 -41 -14 -38 4 1 8 6 18 11
22 4 4 5 2 0 -6 -6 -10 -2 -11 16 -6 13 4 25 11 27 16 2 5 13 3 24 -4 14 -8
22 -8 24 -2 3 7 27 9 64 5 33 -3 60 -3 60 0 0 3 12 5 28 4 15 0 30 4 34 10 5
8 8 7 8 -1 0 -7 7 -13 16 -13 13 0 14 3 5 13 -8 11 -5 13 19 9 16 -2 27 -8 24
-13z m-558 -32 c4 -4 -2 -7 -14 -7 -12 0 -22 4 -22 9 0 10 26 9 36 -2z m70 -5
c-3 -6 -16 -7 -29 -4 -22 6 -22 6 3 12 28 8 35 6 26 -8z m107 10 c4 8 6 7 6
-4 1 -13 -7 -18 -29 -18 -16 0 -30 4 -30 9 0 14 23 20 37 9 7 -6 13 -4 16 4z
m-363 -6 c0 -11 -19 -15 -25 -6 -3 5 1 10 9 10 9 0 16 -2 16 -4z m425 -221
c259 -4 490 -10 515 -15 122 -24 282 -71 345 -101 169 -82 336 -309 380 -517
20 -96 20 -319 0 -434 -23 -131 -75 -257 -143 -348 -88 -117 -235 -218 -356
-245 -17 -3 -41 -14 -55 -24 -62 -43 -99 -45 -686 -46 -308 0 -568 4 -577 8
-17 7 -18 58 -18 862 0 963 -8 879 80 870 25 -2 257 -7 515 -10z m1408 -511
c7 -8 -3 -34 -13 -34 -5 0 -8 9 -7 20 1 20 8 25 20 14z m55 -181 c-10 -2 -18
-9 -18 -15 0 -6 -3 -9 -6 -5 -10 10 6 27 24 26 15 -1 15 -2 0 -6z m-23 -483
c3 -5 2 -18 -4 -27 -6 -12 -5 -20 6 -28 14 -10 14 -15 0 -41 -9 -16 -17 -22
-17 -14 0 11 -3 11 -11 -3 -8 -14 -8 -22 0 -30 18 -18 13 -29 -11 -25 -12 2
-23 9 -26 17 -3 8 0 11 5 8 6 -4 10 7 11 23 0 17 8 37 17 46 13 14 14 19 3 26
-10 7 -9 12 7 24 17 13 18 16 5 24 -9 6 -10 10 -3 10 6 0 15 -4 18 -10z m-37
-197 c-9 -10 -14 -23 -11 -29 2 -7 -10 -17 -27 -22 -18 -7 -30 -7 -30 -1 0 5
5 9 10 9 6 0 10 11 10 23 0 30 7 37 38 37 23 0 24 -1 10 -17z m-28 -73 c0 -5
-19 -42 -42 -81 -40 -65 -179 -219 -199 -219 -5 0 -17 -8 -27 -17 -32 -31 -68
-58 -81 -61 -6 -1 -29 -13 -49 -26 -20 -12 -42 -21 -48 -19 -6 2 -17 -3 -24
-12 -7 -8 -22 -14 -34 -14 -17 1 -17 2 -3 6 9 2 17 9 17 14 0 6 -4 8 -9 5 -5
-4 -16 -3 -25 0 -14 5 -14 8 -1 21 9 8 13 19 9 24 -3 6 5 7 22 3 22 -6 26 -4
21 9 -4 10 0 14 11 13 21 -4 46 11 85 47 17 15 32 25 35 22 3 -3 14 2 24 12
10 9 18 13 18 9 0 -4 15 7 33 24 17 16 40 33 50 36 9 3 17 8 17 12 0 12 74 87
83 84 5 -1 6 2 3 7 -3 5 7 21 24 34 16 14 30 30 30 35 0 10 39 41 53 41 4 1 7
-3 7 -9z m-550 -402 c0 -4 -4 -8 -9 -8 -6 0 -12 4 -15 8 -3 5 1 9 9 9 8 0 15
-4 15 -9z m18 -53 c-3 -3 -9 2 -12 12 -6 14 -5 15 5 6 7 -7 10 -15 7 -18z
m-105 1 c4 -10 0 -12 -15 -8 -15 4 -17 7 -6 13 17 11 15 11 21 -5z m-176 -42
c-3 -3 -12 -4 -19 -1 -8 3 -5 6 6 6 11 1 17 -2 13 -5z"/>
<path d="M11965 18204 c-177 -19 -309 -56 -474 -135 -272 -129 -491 -357 -611
-637 -100 -232 -123 -538 -58 -782 78 -295 365 -640 653 -783 173 -86 238
-108 405 -137 36 -6 84 -16 107 -21 68 -15 339 -11 418 6 39 8 102 22 142 30
74 16 113 31 243 92 280 131 525 363 653 619 69 137 98 244 110 407 22 306
-33 522 -195 759 -206 303 -524 508 -873 564 -88 14 -441 26 -520 18z m367
-194 c151 -15 256 -44 373 -103 302 -150 516 -412 603 -736 21 -81 23 -299 4
-381 -56 -229 -149 -397 -309 -553 -51 -50 -194 -157 -210 -157 -3 0 -17 -8
-31 -19 -40 -27 -214 -90 -301 -108 -54 -11 -138 -16 -291 -17 -187 0 -227 3
-308 22 -302 70 -605 297 -746 558 -83 153 -109 263 -109 459 0 118 4 155 26
235 41 156 135 316 266 453 95 99 164 153 272 210 144 77 297 122 469 136 140
12 178 12 292 1z"/>
<path d="M22895 18190 c-147 -25 -161 -29 -300 -85 -155 -63 -270 -130 -372
-216 -242 -206 -381 -427 -438 -700 -20 -95 -20 -346 0 -433 33 -140 99 -292
186 -430 48 -74 178 -220 239 -267 25 -18 47 -37 50 -40 3 -3 39 -28 80 -56
92 -61 284 -155 365 -177 33 -10 74 -21 91 -27 17 -5 44 -9 62 -9 17 0 41 -4
54 -9 81 -31 450 -15 623 27 139 34 404 174 434 231 12 21 16 427 5 455 -9 24
-25 19 -64 -17 -103 -95 -207 -157 -355 -212 -136 -50 -184 -62 -312 -76 -362
-37 -723 125 -910 410 -85 129 -114 211 -120 345 -8 179 19 317 85 426 119
199 293 336 527 414 209 70 463 66 684 -10 193 -67 287 -119 406 -229 22 -19
44 -34 50 -32 6 2 11 87 13 239 2 198 0 237 -13 248 -63 52 -274 162 -360 187
-159 47 -205 53 -425 58 -138 3 -198 -1 -285 -15z m205 -140 c10 0 22 5 25 10
3 6 17 10 31 10 18 0 23 -4 18 -12 -5 -8 -1 -8 10 1 13 11 24 12 49 4 18 -6
67 -11 109 -11 43 -1 86 -6 98 -12 11 -6 20 -8 20 -4 0 4 8 0 18 -8 9 -9 34
-19 55 -22 46 -9 87 -26 87 -38 0 -4 9 -8 20 -8 11 0 20 -4 20 -8 0 -5 10 -13
22 -19 21 -9 34 -53 15 -53 -5 0 -7 9 -4 20 5 18 3 18 -18 4 -20 -13 -23 -13
-29 1 -3 9 -10 13 -16 10 -5 -3 -10 0 -10 7 0 10 -2 10 -9 -1 -5 -7 -14 -10
-20 -7 -6 4 -9 11 -6 16 3 5 0 12 -6 16 -7 4 -9 3 -5 -4 10 -17 -17 -20 -53
-6 -18 8 -38 11 -43 8 -6 -4 -13 -2 -17 4 -9 16 -123 29 -299 36 -45 2 -85 6
-89 10 -3 3 -12 1 -20 -6 -8 -6 -13 -7 -12 -2 1 5 -1 17 -6 27 -6 15 -10 16
-16 5 -7 -10 -9 -10 -9 0 0 7 11 17 24 22 13 5 28 14 32 21 6 10 9 10 12 1 2
-7 12 -12 22 -12z m-110 -51 c0 -14 -16 -11 -29 5 -10 12 -8 13 8 9 12 -3 21
-9 21 -14z m-155 1 c-3 -5 -1 -10 4 -10 6 0 11 3 11 8 0 4 14 8 32 9 30 1 31
0 13 -13 -11 -8 -25 -12 -32 -10 -7 3 -15 1 -17 -3 -3 -5 -17 -6 -32 -3 l-27
5 24 13 c29 16 32 17 24 4z m85 -20 c0 -5 -5 -10 -11 -10 -5 0 -7 5 -4 10 3 6
8 10 11 10 2 0 4 -4 4 -10z m-180 -35 c-12 -15 -44 -9 -34 7 3 5 12 7 20 4 8
-3 13 -2 13 2 -3 16 3 26 8 14 3 -7 0 -19 -7 -27z m44 5 c-6 -6 -10 -3 -10 10
0 13 4 16 10 10 7 -7 7 -13 0 -20z m-74 -24 c0 -2 -7 -7 -16 -10 -8 -3 -12 -2
-9 4 6 10 25 14 25 6z"/>
<path d="M30349 18178 c-21 -47 -102 -194 -181 -332 -37 -65 -68 -120 -68
-122 0 -3 -20 -39 -44 -82 -23 -42 -67 -122 -96 -177 -98 -186 -143 -270 -213
-395 -39 -69 -90 -161 -115 -205 -24 -44 -53 -92 -63 -107 -11 -14 -19 -29
-19 -33 0 -4 -23 -48 -52 -99 -28 -50 -66 -118 -83 -151 -103 -192 -238 -441
-277 -510 -26 -45 -48 -96 -50 -114 l-3 -34 60 -3 c33 -1 117 -5 187 -8 85 -4
135 -3 151 5 27 12 151 210 207 330 52 111 -14 101 642 99 621 -2 662 -3 683
-20 13 -11 44 -64 123 -210 19 -36 43 -77 54 -92 10 -14 18 -31 18 -37 0 -6 9
-25 20 -43 l20 -33 122 -1 c68 0 160 -5 206 -10 92 -11 106 -5 90 35 -5 14
-12 37 -15 51 -2 14 -16 45 -31 70 -14 25 -42 77 -62 115 -21 39 -57 108 -82
155 -25 47 -80 153 -123 235 -43 83 -87 164 -97 180 -10 17 -21 38 -24 48 -4
9 -9 17 -13 17 -3 0 -13 15 -20 33 -13 29 -88 162 -111 197 -6 8 -13 22 -17
30 -4 8 -40 73 -80 144 -40 71 -73 131 -73 135 0 3 -16 33 -36 65 -19 33 -52
91 -73 130 -40 75 -60 111 -121 216 -20 36 -54 99 -75 140 -22 41 -46 86 -55
100 -9 14 -41 70 -70 125 -30 55 -65 121 -79 147 -15 26 -31 48 -36 48 -6 0
-18 -15 -26 -32z m43 -845 c8 -10 36 -58 61 -108 40 -80 83 -157 191 -345 18
-30 58 -95 89 -144 31 -50 57 -101 57 -115 l0 -26 -408 1 c-405 1 -407 1 -406
22 1 19 65 153 86 179 5 7 18 27 27 45 10 18 40 71 66 118 85 154 146 274 162
320 24 72 45 87 75 53z"/>
<path d="M20442 18098 c-33 -57 -72 -125 -87 -153 -15 -27 -44 -77 -63 -110
-51 -87 -137 -244 -200 -364 -30 -58 -64 -121 -77 -140 -12 -20 -43 -76 -70
-126 -26 -49 -63 -116 -81 -148 -19 -32 -34 -60 -34 -62 0 -2 -30 -56 -68
-122 -37 -65 -78 -140 -92 -168 -14 -27 -28 -51 -32 -53 -5 -2 -8 -7 -8 -12 0
-4 -31 -63 -70 -130 -38 -67 -70 -128 -70 -135 0 -7 -4 -15 -8 -17 -7 -3 -46
-74 -222 -403 -21 -38 -42 -86 -48 -107 l-10 -36 44 0 c42 0 58 11 32 21 -7 3
3 3 22 0 19 -2 48 -4 63 -4 21 1 26 -2 21 -11 -6 -10 -4 -10 8 0 24 19 108 23
115 6 3 -9 9 -11 17 -5 14 11 66 11 66 0 0 -16 25 -9 43 11 9 11 17 22 17 24
0 2 18 33 40 67 22 35 65 114 95 175 30 61 62 118 71 125 14 12 128 15 634 17
l618 3 31 -27 c17 -14 31 -29 31 -34 0 -5 17 -39 38 -77 22 -37 56 -99 77
-138 20 -38 44 -77 51 -86 8 -8 14 -20 14 -26 0 -5 11 -20 25 -33 23 -21 29
-22 122 -16 54 3 150 2 213 -3 63 -5 117 -7 120 -5 2 3 -1 13 -8 22 -7 9 -22
35 -33 57 -11 22 -24 47 -29 55 -6 8 -26 43 -45 78 -19 34 -51 90 -71 125 -20
34 -44 76 -54 92 -9 17 -30 53 -47 80 -16 28 -35 65 -42 83 -7 17 -17 32 -22
32 -5 0 -9 8 -9 19 0 10 -15 34 -33 53 -18 19 -31 40 -29 47 2 6 -1 11 -7 11
-6 0 -11 9 -11 20 0 11 -4 20 -10 20 -5 0 -10 7 -10 15 0 9 -9 26 -20 38 -12
12 -27 33 -34 47 -7 14 -30 57 -51 95 -21 39 -43 81 -49 94 -23 51 -205 408
-231 456 -15 28 -44 82 -65 120 -21 39 -61 113 -90 165 -29 52 -77 142 -107
200 -31 58 -72 134 -93 170 -21 36 -52 98 -70 138 -18 39 -39 72 -46 72 -7 0
-39 -46 -72 -102z m90 -765 c10 -9 18 -22 18 -29 0 -16 134 -271 226 -429 13
-22 31 -56 40 -75 10 -19 35 -64 56 -99 44 -73 49 -108 16 -113 -13 -2 -59 0
-103 4 -44 4 -214 7 -378 7 -163 0 -302 3 -307 6 -13 8 -13 55 0 55 6 0 10 6
10 13 0 8 9 22 20 32 11 10 20 22 20 27 0 5 20 38 44 74 25 35 48 75 52 87 4
12 16 35 28 52 11 16 60 109 109 205 76 153 106 200 126 200 2 0 13 -7 23 -17z
m578 -661 c0 -13 -12 -22 -22 -16 -10 6 -1 24 13 24 5 0 9 -4 9 -8z m-22 -40
c6 -20 -22 -13 -35 8 -12 17 -11 18 9 11 12 -4 24 -13 26 -19z m32 -1 c0 -6
-4 -12 -8 -15 -5 -3 -9 1 -9 9 0 8 4 15 9 15 4 0 8 -4 8 -9z m30 -5 c0 -3 -4
-8 -10 -11 -5 -3 -10 -1 -10 4 0 6 5 11 10 11 6 0 10 -2 10 -4z m-5 -36 c-3
-5 2 -10 12 -11 10 0 13 -3 6 -6 -19 -7 -16 -21 5 -25 9 -2 13 -6 7 -9 -5 -3
-28 0 -50 7 -26 8 -32 13 -18 13 22 1 44 21 23 21 -6 0 -8 5 -5 10 3 6 11 10
16 10 6 0 7 -4 4 -10z"/>
<path d="M26668 17008 c2 -650 4 -1183 5 -1184 1 -1 97 -3 212 -5 l210 -4 0
745 0 745 21 3 c14 2 32 -10 56 -40 48 -58 108 -118 159 -159 41 -33 290 -254
438 -387 41 -37 83 -74 95 -82 12 -8 38 -30 60 -50 21 -19 49 -44 62 -55 127
-106 178 -151 251 -219 46 -44 94 -86 106 -94 45 -31 176 -151 328 -300 175
-171 193 -186 216 -178 14 6 15 29 8 209 -4 111 -11 210 -16 220 -6 11 -6 17
1 17 6 0 8 16 4 43 -10 79 -13 201 -15 642 -2 489 0 575 12 575 14 0 10 28 -3
33 -10 4 -10 8 -2 14 8 5 14 63 17 158 4 83 9 220 13 306 7 147 6 156 -12 164
-25 11 -376 15 -389 5 -11 -9 -12 -1277 -1 -1447 3 -51 2 -93 -3 -93 -4 0 -16
10 -28 23 -28 31 -202 196 -243 231 -19 16 -71 63 -115 105 -44 42 -134 123
-199 181 -66 58 -149 132 -185 166 -36 33 -82 74 -102 90 -20 16 -101 85 -180
154 -79 69 -157 136 -174 150 -16 14 -50 43 -75 66 -25 22 -93 81 -151 132
-59 50 -149 130 -200 178 -90 83 -120 104 -164 118 -20 6 -20 2 -17 -1176z
m857 -28 c44 -44 77 -80 75 -80 -3 0 -41 36 -85 80 -44 44 -77 80 -75 80 3 0
41 -36 85 -80z m1115 -350 c0 -5 -4 -10 -10 -10 -5 0 -10 5 -10 10 0 6 5 10
10 10 6 0 10 -4 10 -10z m60 -55 c-8 -9 -8 -15 -2 -15 7 0 8 -10 2 -29 -4 -16
-7 -31 -5 -33 2 -2 -5 -5 -17 -5 -25 -2 -32 -9 -23 -22 4 -8 12 -8 26 -1 23
13 24 2 3 -28 -18 -26 -30 -28 -38 -6 -5 14 -4 15 9 4 9 -8 15 -9 15 -2 0 6
-7 15 -16 20 -11 6 -14 16 -9 31 3 12 11 19 16 16 5 -4 9 -1 9 5 0 6 4 8 10 5
6 -3 7 1 4 9 -7 19 -20 21 -28 4 -3 -7 -3 -2 0 12 4 14 7 25 8 25 0 0 10 5 21
12 27 16 30 16 15 -2z m-520 -172 c0 -8 -9 0 -50 45 l-45 47 48 -45 c26 -24
47 -45 47 -47z"/>
<path d="M6083 18146 c-29 -6 -58 -16 -64 -23 -18 -18 -5 -1330 15 -1478 40
-295 176 -541 404 -727 74 -61 236 -151 289 -161 15 -3 46 -10 68 -17 146 -41
328 -51 450 -25 39 9 86 18 105 21 157 26 339 132 481 282 162 170 246 340
289 582 5 30 14 82 20 115 6 35 12 342 15 738 5 612 4 678 -10 683 -9 4 -60 7
-113 8 l-97 1 -6 -750 c-6 -818 -8 -836 -66 -969 -41 -93 -124 -215 -189 -278
-95 -91 -243 -175 -349 -199 -79 -18 -403 -18 -465 -1 -261 74 -443 241 -559
513 -22 52 -45 121 -50 153 -7 39 -11 317 -11 783 0 480 -3 731 -10 744 -12
22 -62 24 -147 5z"/>
<path d="M3720 18138 c-6 -161 3 -2345 9 -2351 10 -10 160 11 179 26 9 7 12
122 12 512 0 395 3 504 13 508 7 2 242 5 524 6 l511 2 58 -118 c32 -65 80
-156 107 -203 59 -103 100 -179 251 -465 152 -288 140 -269 173 -273 34 -5
203 18 203 27 0 7 -78 160 -90 176 -4 6 -26 45 -49 88 -22 42 -60 112 -82 155
-23 42 -45 82 -49 87 -4 6 -30 54 -59 107 -69 132 -155 279 -207 358 -30 45
-40 68 -33 77 6 6 36 19 67 29 143 44 271 136 350 254 63 95 75 147 76 345 1
154 -1 176 -22 237 -30 86 -105 201 -165 254 -54 48 -162 107 -227 124 -156
42 -142 42 -857 47 -575 4 -693 3 -693 -9z m1439 -229 c84 -13 103 -24 188
-109 107 -108 118 -136 118 -295 0 -154 -14 -204 -81 -295 -51 -70 -97 -101
-196 -134 -69 -23 -88 -24 -333 -26 -143 -1 -404 -5 -580 -9 -176 -4 -328 -3
-337 1 -16 8 -18 42 -20 431 -2 232 1 431 6 441 8 19 24 19 590 12 319 -3 610
-11 645 -17z"/>
<path d="M8598 18144 c-13 -12 -10 -2312 2 -2335 9 -17 22 -19 100 -19 48 0
95 3 104 6 14 5 16 60 16 509 0 426 2 504 14 515 11 8 164 12 603 14 563 3
591 4 665 24 122 33 199 76 282 155 82 78 136 160 160 240 80 266 27 532 -136
695 -98 97 -166 136 -278 160 -30 6 -77 17 -105 23 -58 13 -1415 26 -1427 13z
m1497 -247 c83 -28 175 -115 231 -217 16 -30 19 -56 18 -185 -1 -135 -3 -155
-24 -200 -21 -45 -54 -91 -106 -151 -22 -25 -96 -64 -120 -64 -9 0 -32 -9 -50
-21 -32 -19 -50 -20 -615 -25 -428 -3 -585 -1 -595 7 -12 9 -14 89 -14 446 l0
434 613 -3 c542 -4 618 -6 662 -21z"/>
<path d="M17000 18128 c-13 -11 -15 -151 -12 -1165 l3 -1153 204 0 205 0 2
178 c2 97 3 267 3 377 0 110 4 206 8 213 6 9 106 12 442 12 l433 0 29 -29 c15
-16 47 -66 71 -112 24 -46 47 -91 52 -99 5 -8 15 -28 23 -45 7 -16 44 -88 82
-159 37 -72 86 -165 109 -209 53 -101 68 -117 114 -118 20 -1 48 -3 62 -5 14
-1 82 -5 151 -9 l126 -6 5 26 c7 35 -28 131 -96 260 -32 61 -83 157 -113 215
-83 158 -101 188 -149 256 -64 89 -61 105 29 149 89 43 117 68 191 168 120
162 169 353 149 586 -15 177 -45 258 -149 396 -94 125 -191 201 -302 235 -60
19 -99 21 -431 25 -757 9 -1167 16 -1196 21 -17 3 -36 0 -45 -8z m472 -201
c70 0 125 -3 123 -6 -2 -3 11 -5 28 -4 18 1 32 2 32 4 0 1 42 3 92 4 66 2 91
-1 86 -9 -5 -8 -3 -8 8 0 9 8 108 12 306 12 161 0 297 3 302 7 5 3 12 2 15 -3
3 -5 21 -8 40 -7 19 0 32 -3 30 -7 -4 -7 10 -12 61 -22 48 -9 67 -20 76 -43 5
-13 14 -21 19 -18 7 5 8 11 1 19 -7 8 -5 12 9 12 11 0 18 -7 17 -17 -1 -10 -5
-15 -9 -13 -4 3 -8 0 -8 -5 0 -6 -7 -11 -15 -11 -8 0 -15 4 -15 9 0 8 -93 26
-117 22 -6 -1 -14 3 -18 8 -3 6 -13 7 -21 4 -9 -3 -20 0 -25 8 -7 11 -9 11 -9
1 0 -10 -11 -12 -47 -7 -27 3 -77 8 -113 10 -97 6 -862 7 -868 1 -2 -3 -12 -1
-22 4 -11 6 -26 4 -43 -5 -16 -8 -27 -10 -27 -4 0 6 -6 7 -12 2 -17 -10 -38
-10 -65 -1 -13 4 -23 4 -23 -1 0 -5 -22 -8 -48 -7 -45 1 -47 2 -38 23 6 12 14
19 18 17 5 -3 8 0 8 6 0 6 5 8 10 5 6 -3 10 -1 10 5 0 7 7 10 15 7 8 -4 16 -3
19 1 2 4 24 6 48 4 24 -2 100 -4 170 -5z m894 -228 c123 -11 164 -27 227 -87
61 -59 85 -104 102 -197 12 -64 12 -81 0 -130 -30 -114 -126 -216 -232 -245
-61 -17 -118 -19 -555 -23 -384 -3 -490 -2 -498 8 -7 8 -10 122 -9 331 2 271
4 322 17 337 14 16 45 17 431 16 229 -1 461 -5 517 -10z m274 -879 c0 -15 -6
-19 -30 -17 -16 1 -32 7 -34 14 -4 9 4 11 26 6 22 -4 29 -3 24 5 -4 7 -2 12 3
12 6 0 11 -9 11 -20z m-83 -5 c0 -8 -4 -12 -9 -9 -5 3 -6 10 -3 15 9 13 12 11
12 -6z"/>
<path d="M24406 18131 c-7 -10 -10 -627 -8 -1519 l2 -813 68 5 c37 3 199 6
360 7 172 0 290 5 286 10 -3 5 0 9 5 9 6 0 11 -5 11 -10 0 -7 31 -10 85 -8 47
2 85 7 85 12 0 6 5 5 11 -1 6 -6 24 -8 42 -4 18 4 94 6 169 4 82 -1 140 2 143
8 4 5 12 6 18 2 7 -5 93 -9 192 -10 99 -1 205 -4 235 -7 30 -2 86 -8 123 -11
40 -4 74 -2 80 4 16 12 24 381 9 390 -6 3 -48 3 -94 0 -45 -3 -380 -7 -742 -8
-605 -1 -660 0 -677 15 -18 16 -19 37 -19 300 0 272 1 284 20 294 13 7 216 10
626 10 333 -1 608 1 610 3 2 2 5 82 6 178 l3 174 -85 -1 c-47 -1 -323 -4 -615
-7 -466 -4 -532 -3 -548 11 -16 14 -17 39 -16 278 1 220 4 266 17 285 l15 22
296 -7 c387 -8 1191 -9 1200 -1 8 8 15 339 7 368 l-5 22 -956 1 c-525 1 -957
-1 -959 -5z"/>
<path d="M34289 16106 c-64 -44 -86 -151 -53 -262 21 -72 45 -88 124 -82 103
7 160 73 160 183 0 74 -22 113 -84 150 -66 39 -103 41 -147 11z"/>
</g>
</svg>
